<?xml version="1.0" standalone="no"?>
<!DOCTYPE svg PUBLIC "-//W3C//DTD SVG 20010904//EN"
 "http://www.w3.org/TR/2001/REC-SVG-20010904/DTD/svg10.dtd">
<svg version="1.0" xmlns="http://www.w3.org/2000/svg"
 width="189.000000pt" height="126.000000pt" viewBox="0 0 189.000000 126.000000"
 preserveAspectRatio="xMidYMid meet">

<g transform="translate(0.000000,126.000000) scale(0.100000,-0.100000)"
fill="#000000" stroke="none">
<path d="M815 1222 c-200 -24 -389 -154 -468 -322 -48 -103 -61 -168 -54 -287
6 -115 27 -182 87 -277 104 -165 295 -266 500 -266 171 0 309 57 425 175 117
118 168 241 168 405 0 78 -5 110 -27 175 -15 44 -32 85 -38 92 -6 7 -18 27
-27 43 -25 46 -119 138 -182 176 -106 64 -269 101 -384 86z m171 -43 c214 -39
398 -216 443 -427 44 -208 -51 -432 -233 -551 -223 -145 -501 -126 -689 48
-290 268 -226 710 128 881 117 57 225 72 351 49z"/>
<path d="M805 1151 c-173 -28 -323 -138 -399 -292 -98 -200 -52 -428 117 -585
181 -168 454 -195 653 -66 247 162 315 447 164 695 -105 174 -333 279 -535
248z m-35 -103 c0 -28 -7 -49 -25 -70 l-25 -30 0 -267 c0 -255 1 -270 20 -294
34 -43 154 -62 228 -36 59 20 62 35 74 319 11 256 11 258 -11 293 -13 22 -21
51 -21 81 0 54 10 57 80 25 140 -63 260 -217 278 -358 30 -226 -124 -455 -352
-523 -158 -46 -347 4 -471 126 -61 60 -123 151 -111 163 3 3 10 -6 15 -21 6
-14 15 -26 21 -26 5 0 10 -7 10 -15 0 -18 10 -32 65 -86 22 -21 47 -39 55 -39
8 0 21 -9 28 -20 7 -11 19 -20 27 -20 8 0 15 -4 15 -8 0 -11 73 -30 143 -38
45 -5 57 -3 57 7 0 11 2 12 9 1 10 -17 126 -6 142 14 6 8 26 14 44 14 18 0 38
7 45 15 7 8 21 15 31 15 23 0 140 115 164 161 27 54 45 129 45 194 l0 60 -40
13 c-68 21 -70 19 -70 -51 0 -51 -6 -76 -30 -124 -34 -68 -104 -138 -170 -170
-93 -45 -222 -48 -303 -8 -17 8 -38 15 -49 15 -10 0 -18 5 -18 10 0 6 -20 30
-45 54 -25 25 -45 49 -45 54 0 6 -6 17 -12 24 -23 24 -47 82 -56 133 l-8 50
-52 0 c-49 0 -52 1 -52 25 2 80 96 231 186 301 54 41 161 92 176 83 4 -3 8
-23 8 -46z m198 -83 c-2 -41 -6 -75 -10 -75 -5 0 -44 0 -88 0 l-80 0 0 68 c0
38 3 72 7 75 3 4 44 7 90 7 l84 0 -3 -75z m-97 -164 c71 -2 95 0 115 14 14 9
27 15 28 13 1 -2 -3 -94 -9 -204 -12 -250 -9 -244 -132 -244 -76 0 -86 2 -108
25 -25 24 -25 25 -25 231 l0 207 21 -19 c17 -15 40 -20 110 -23z m432 -140
c17 -6 17 -8 -5 -18 -20 -9 -24 -8 -24 8 0 21 2 21 29 10z m-823 -12 c0 -5 -4
-7 -10 -4 -5 3 -10 1 -10 -4 0 -6 6 -11 13 -12 6 0 1 -5 -12 -10 -13 -5 -26
-7 -29 -4 -3 3 0 5 6 5 7 0 12 7 12 16 0 14 -3 14 -15 4 -12 -10 -15 -10 -15
4 0 11 9 16 30 16 17 0 30 -5 30 -11z m794 -53 c-3 -7 2 -16 11 -20 10 -4 19
2 25 17 l9 22 0 -23 c1 -12 -6 -25 -15 -29 -19 -7 -49 20 -40 36 10 16 16 14
10 -3z m-780 -13 c7 -18 -9 -33 -35 -33 -23 0 -32 38 -10 43 31 9 39 7 45 -10z
m-87 -25 c-3 -7 -5 -2 -5 12 0 14 2 19 5 13 2 -7 2 -19 0 -25z m898 -19 c4 -6
-3 -13 -14 -16 -20 -5 -21 -6 -4 -20 17 -13 16 -13 -7 -7 -37 9 -45 21 -20 29
18 6 20 9 9 16 -11 6 -9 9 8 9 12 0 25 -5 28 -11z m-875 -39 c0 -13 -1 -13
-10 0 -5 8 -10 22 -10 30 0 13 1 13 10 0 5 -8 10 -22 10 -30z m87 15 c1 -16 1
-16 -3 -2 -6 19 -29 23 -39 7 -4 -6 -1 -17 5 -25 8 -10 9 -15 2 -15 -13 0 -25
36 -17 50 11 18 50 7 52 -15z m717 -37 c-5 -8 -2 -9 9 -5 9 3 16 3 16 -1 -3
-21 3 -24 17 -6 14 18 15 18 4 -3 -12 -27 -19 -28 -45 -10 -15 12 -15 37 1 37
3 0 2 -5 -2 -12z m-700 -29 c-12 -14 -20 -16 -25 -8 -3 6 -13 15 -20 20 -10 6
-8 9 9 9 13 0 20 -4 17 -10 -3 -5 -1 -10 4 -10 6 0 11 7 11 16 0 8 5 12 11 9
7 -5 4 -14 -7 -26z m702 -24 c14 -13 14 -15 0 -15 -10 0 -13 -6 -9 -16 5 -15
3 -15 -21 1 -21 14 -24 20 -15 31 15 18 27 18 45 -1z m-674 -37 c-12 -12 -32
-2 -31 15 0 9 2 9 6 0 8 -22 21 -14 16 10 -4 20 -3 20 7 4 8 -13 9 -22 2 -29z
m631 -9 c17 -19 17 -20 0 -17 -12 2 -17 -2 -15 -12 3 -11 -2 -10 -17 4 -16 15
-18 22 -10 33 15 18 21 17 42 -8z m-570 -13 l22 7 -20 -24 c-11 -13 -21 -26
-23 -29 -2 -3 -2 4 0 15 2 16 -2 19 -21 17 -24 -2 -24 -2 -5 19 16 18 19 19
22 5 3 -12 10 -15 25 -10z m527 -43 c0 -7 -7 -16 -15 -19 -16 -7 -45 12 -45
29 0 5 9 2 20 -8 25 -23 39 -11 21 18 -13 20 -13 21 2 8 10 -7 17 -20 17 -28z
m-469 -4 c-16 -6 -21 -14 -16 -27 5 -13 3 -14 -6 -5 -17 17 -3 43 23 42 l23 0
-24 -10z m382 4 c-7 -2 -13 -11 -13 -18 0 -20 21 -30 31 -14 7 11 9 10 9 -3 0
-22 -38 -24 -46 -3 -8 20 2 45 18 44 10 0 10 -2 1 -6z m-326 -28 c-9 -8 -17
-20 -20 -27 -2 -7 -7 -11 -9 -8 -11 10 12 50 27 50 15 0 15 -2 2 -15z m71 -13
c8 8 8 4 0 -15 -14 -29 -24 -35 -25 -14 0 6 -4 21 -8 32 -6 18 -6 19 8 3 10
-13 16 -15 25 -6z m190 1 c5 -10 7 -24 5 -30 -6 -18 -42 -16 -49 2 -15 38 26
63 44 28z m-245 -14 c-4 -15 -8 -17 -14 -8 -6 11 4 28 18 29 0 0 -1 -9 -4 -21z
m101 10 c-3 -6 0 -15 7 -20 11 -7 11 -9 -3 -9 -9 0 -19 -6 -21 -12 -3 -7 -6 2
-6 20 -1 23 4 32 15 32 8 0 12 -5 8 -11z m67 -21 c-5 -30 -6 -31 -9 -8 -2 14
-9 28 -16 32 -7 5 -3 8 10 8 18 0 20 -5 15 -32z"/>
<path d="M810 990 c0 -16 5 -30 10 -30 6 0 10 14 10 30 0 17 -4 30 -10 30 -5
0 -10 -13 -10 -30z"/>
<path d="M930 990 c0 -16 5 -30 10 -30 6 0 10 6 10 14 0 8 3 21 6 30 4 11 1
16 -10 16 -11 0 -16 -9 -16 -30z"/>
<path d="M843 660 c-28 -35 -28 -40 -3 -40 14 0 20 -7 20 -22 0 -17 -3 -19 -9
-10 -5 8 -21 12 -37 10 -45 -5 -44 -41 1 -88 33 -33 35 -40 24 -58 -17 -28 4
-54 40 -50 31 4 40 37 17 60 -13 14 -11 19 18 47 17 17 37 31 44 31 7 0 12 15
12 36 0 27 -5 37 -20 41 -11 3 -29 21 -41 39 -25 41 -37 42 -66 4z m17 -137
c0 -21 -3 -24 -9 -14 -5 8 -7 20 -4 28 8 21 13 15 13 -14z"/>
<path d="M463 583 c-18 -6 -16 -23 1 -23 17 0 30 16 19 23 -5 2 -14 2 -20 0z"/>
<path d="M1200 419 c0 -5 5 -7 10 -4 6 3 10 8 10 11 0 2 -4 4 -10 4 -5 0 -10
-5 -10 -11z"/>
<path d="M1160 374 c0 -8 5 -12 10 -9 6 3 10 10 10 16 0 5 -4 9 -10 9 -5 0
-10 -7 -10 -16z"/>
<path d="M960 270 c0 -11 7 -20 15 -20 8 0 15 9 15 20 0 11 -7 20 -15 20 -8 0
-15 -9 -15 -20z"/>
</g>
</svg>
