<?xml version="1.0" standalone="no"?>
<!DOCTYPE svg PUBLIC "-//W3C//DTD SVG 20010904//EN"
 "http://www.w3.org/TR/2001/REC-SVG-20010904/DTD/svg10.dtd">
<svg version="1.0" xmlns="http://www.w3.org/2000/svg"
 width="251.000000pt" height="1003.000000pt" viewBox="0 0 251.000000 1003.000000"
 preserveAspectRatio="xMidYMid meet">

<g transform="translate(0.000000,1003.000000) scale(0.100000,-0.100000)"
fill="#000000" stroke="none">
<path d="M0 5010 l0 -5010 1097 2 1098 3 8 60 c27 217 112 1004 136 1275 68
733 106 1319 148 2275 21 481 24 2037 5 2640 -24 748 -96 1882 -157 2455 l-14
135 5 -115 c3 -63 9 -167 14 -230 14 -170 27 -332 49 -650 11 -157 23 -315 26
-352 5 -57 4 -68 -9 -68 -12 0 -16 -11 -16 -49 0 -40 3 -50 20 -54 24 -6 28
-55 5 -63 -8 -4 -15 -12 -15 -20 0 -8 -4 -14 -10 -14 -5 0 -10 5 -10 11 0 7
-8 18 -17 24 -15 12 -16 18 -5 47 17 47 16 114 -2 121 -8 3 -18 29 -23 59 -7
42 -12 52 -26 50 -18 -3 -21 8 -10 47 6 23 7 24 14 5 5 -12 7 4 6 41 -2 51 -5
60 -19 57 -14 -2 -18 4 -18 25 0 25 -24 340 -50 648 -21 261 -71 694 -84 740
-8 28 -27 154 -41 280 -35 310 -30 292 -88 347 l-49 48 -863 0 c-620 0 -871
-3 -889 -11 -35 -16 -64 -6 -136 48 -87 65 -87 82 0 38 60 -31 86 -38 168 -46
53 -4 468 -8 921 -9 603 0 833 -3 857 -12 26 -9 40 -8 76 5 24 9 51 17 60 17
8 0 23 12 33 26 14 22 16 39 10 92 -4 36 -9 71 -12 79 -4 11 -200 13 -1099 13
l-1094 0 0 -5010z m2074 4991 c44 -9 42 -25 -6 -47 -41 -18 -77 -19 -948 -19
-885 0 -906 0 -944 20 -44 22 -48 37 -14 47 30 8 1873 8 1912 -1z m366 -2890
c0 -9 -9 -24 -20 -34 -19 -16 -21 -16 -40 0 -24 21 -25 40 -4 64 15 17 18 17
40 2 13 -8 24 -23 24 -32z m10 -187 c0 -8 -9 -23 -20 -34 -19 -19 -21 -19 -40
-3 -25 21 -25 41 -2 63 15 15 19 15 40 2 12 -8 22 -21 22 -28z m-9 -194 c24
-14 24 -35 -1 -60 -19 -19 -21 -19 -40 -3 -25 21 -26 49 -2 62 21 13 20 13 43
1z m10 -250 c24 -14 24 -35 -1 -60 -19 -19 -21 -19 -40 -3 -25 21 -26 49 -2
62 21 13 20 13 43 1z m27 -333 c2 -9 -6 -25 -17 -36 -20 -20 -22 -20 -41 -4
-24 21 -26 49 -3 61 21 12 57 0 61 -21z m10 -420 c2 -9 -6 -25 -17 -36 -20
-20 -22 -20 -41 -4 -24 21 -26 49 -3 61 21 12 57 0 61 -21z"/>
<path d="M2222 9740 c0 -14 2 -19 5 -12 2 6 2 18 0 25 -3 6 -5 1 -5 -13z"/>
<path d="M2231 9664 c0 -11 3 -14 6 -6 3 7 2 16 -1 19 -3 4 -6 -2 -5 -13z"/>
<path d="M2242 9570 c0 -14 2 -19 5 -12 2 6 2 18 0 25 -3 6 -5 1 -5 -13z"/>
<path d="M2252 9485 c0 -16 2 -22 5 -12 2 9 2 23 0 30 -3 6 -5 -1 -5 -18z"/>
<path d="M2262 9395 c0 -16 2 -22 5 -12 2 9 2 23 0 30 -3 6 -5 -1 -5 -18z"/>
<path d="M2272 9305 c0 -16 2 -22 5 -12 2 9 2 23 0 30 -3 6 -5 -1 -5 -18z"/>
<path d="M2282 9210 c0 -14 2 -19 5 -12 2 6 2 18 0 25 -3 6 -5 1 -5 -13z"/>
<path d="M2293 9105 c0 -22 2 -30 4 -17 2 12 2 30 0 40 -3 9 -5 -1 -4 -23z"/>
<path d="M2303 9005 c0 -22 2 -30 4 -17 2 12 2 30 0 40 -3 9 -5 -1 -4 -23z"/>
<path d="M2313 8905 c0 -22 2 -30 4 -17 2 12 2 30 0 40 -3 9 -5 -1 -4 -23z"/>
<path d="M2231 8524 c0 -11 3 -14 6 -6 3 7 2 16 -1 19 -3 4 -6 -2 -5 -13z"/>
<path d="M2242 8430 c0 -19 2 -27 5 -17 2 9 2 25 0 35 -3 9 -5 1 -5 -18z"/>
<path d="M2251 8294 c0 -11 3 -14 6 -6 3 7 2 16 -1 19 -3 4 -6 -2 -5 -13z"/>
<path d="M2262 8190 c0 -19 2 -27 5 -17 2 9 2 25 0 35 -3 9 -5 1 -5 -18z"/>
<path d="M2272 8060 c0 -19 2 -27 5 -17 2 9 2 25 0 35 -3 9 -5 1 -5 -18z"/>
<path d="M2282 7930 c0 -19 2 -27 5 -17 2 9 2 25 0 35 -3 9 -5 1 -5 -18z"/>
<path d="M2292 7790 c0 -19 2 -27 5 -17 2 9 2 25 0 35 -3 9 -5 1 -5 -18z"/>
</g>
</svg>
