<?xml version="1.0" standalone="no"?>
<!DOCTYPE svg PUBLIC "-//W3C//DTD SVG 20010904//EN"
 "http://www.w3.org/TR/2001/REC-SVG-20010904/DTD/svg10.dtd">
<svg version="1.0" xmlns="http://www.w3.org/2000/svg"
 width="1286.000000pt" height="860.000000pt" viewBox="0 0 1286.000000 860.000000"
 preserveAspectRatio="xMidYMid meet">

<g transform="translate(0.000000,860.000000) scale(0.100000,-0.100000)"
fill="#000000" stroke="none">
<path d="M6250 8593 c1 -5 14 -26 29 -48 16 -22 66 -98 112 -170 46 -71 98
-150 116 -175 18 -25 67 -97 109 -160 42 -63 90 -135 107 -160 17 -25 72 -108
123 -185 51 -77 114 -169 139 -205 26 -36 76 -110 112 -165 37 -55 89 -131
118 -170 28 -38 55 -77 60 -85 5 -8 -45 36 -110 98 -139 130 -205 182 -370
293 -300 202 -693 346 -1065 390 -137 17 -437 17 -570 0 -567 -69 -1069 -312
-1464 -706 -374 -373 -614 -848 -702 -1390 -26 -157 -26 -574 -1 -730 45 -281
142 -580 254 -782 12 -24 35 -64 49 -90 41 -76 154 -241 224 -328 87 -109 265
-286 380 -377 554 -441 1259 -621 1965 -502 331 56 662 188 945 377 138 92
244 180 383 317 75 75 136 134 135 131 -2 -4 -43 -66 -93 -140 -49 -74 -94
-141 -100 -149 -5 -9 -44 -65 -85 -126 -41 -61 -110 -165 -155 -231 -44 -66
-108 -160 -141 -210 -33 -49 -92 -137 -130 -194 -38 -57 -91 -136 -118 -175
-27 -39 -72 -109 -100 -155 -28 -46 -64 -104 -80 -130 -50 -81 -67 -113 -61
-119 3 -3 17 5 30 18 21 20 29 22 44 13 13 -8 21 -9 29 -1 8 8 15 8 25 -1 11
-9 17 -8 27 4 19 23 33 18 26 -11 -5 -17 -3 -23 4 -19 24 15 265 352 300 420
3 6 35 56 73 111 37 56 67 105 67 109 0 3 11 21 24 38 14 18 31 43 38 57 8 14
34 57 60 95 47 72 88 142 88 150 0 3 -4 5 -10 5 -5 0 -10 -4 -10 -9 0 -15 -49
-65 -57 -58 -3 4 1 15 10 25 10 10 17 25 18 33 0 8 8 26 17 40 9 15 32 53 51
85 19 33 64 104 100 160 36 56 111 172 166 258 164 257 546 838 625 951 11 17
52 75 91 130 38 55 93 133 122 174 28 40 57 81 64 90 6 9 14 13 18 10 6 -7
-35 -102 -47 -107 -5 -2 -8 -10 -8 -18 0 -27 19 -5 105 124 46 70 107 159 134
197 28 39 64 90 80 115 l30 45 -20 33 c-11 19 -52 79 -92 134 -39 55 -83 119
-97 143 -14 23 -32 50 -40 58 -8 9 -31 41 -50 71 -33 52 -50 68 -50 47 0 -5
18 -43 41 -85 23 -43 39 -80 36 -83 -3 -2 -11 5 -17 17 -7 12 -32 48 -56 80
-24 32 -44 63 -44 68 0 6 -4 12 -9 14 -8 3 -147 195 -211 293 -33 50 -139 209
-256 385 -94 140 -184 277 -320 488 -43 67 -100 155 -126 195 -26 39 -61 97
-79 127 -18 30 -36 57 -39 60 -8 6 -80 126 -80 133 0 3 -16 28 -35 57 -19 29
-35 56 -35 61 0 20 27 7 43 -21 10 -16 22 -30 28 -30 20 0 15 10 -106 195 -28
44 -86 134 -127 200 -42 66 -95 151 -119 188 -24 37 -68 105 -97 150 -28 45
-78 119 -109 165 l-57 82 -113 0 c-62 0 -113 -3 -113 -7z m-554 -878 c775 -89
1435 -538 1808 -1230 118 -217 199 -464 247 -750 32 -188 32 -515 0 -700 -74
-424 -226 -778 -467 -1082 -340 -428 -777 -712 -1289 -838 -191 -47 -343 -65
-548 -65 -500 0 -942 139 -1347 424 -534 375 -895 975 -975 1616 -29 237 -16
571 30 780 48 214 125 428 222 610 448 850 1376 1343 2319 1235z m2034 -1347
c0 -4 33 -57 73 -117 39 -61 110 -170 157 -243 119 -186 287 -436 321 -479 16
-20 29 -41 29 -46 0 -6 14 -29 30 -51 17 -23 30 -46 30 -51 0 -13 -59 -111
-109 -181 -40 -56 -239 -360 -319 -485 -24 -38 -66 -103 -93 -142 -27 -40 -49
-76 -49 -79 0 -4 -15 -27 -33 -53 -18 -25 -46 -68 -62 -95 -16 -27 -31 -44
-33 -37 -2 6 1 17 6 24 45 56 171 449 197 617 4 25 9 53 11 63 33 177 30 582
-6 782 -34 192 -81 360 -154 544 -15 36 -26 67 -26 70 0 7 29 -33 30 -41z
m656 -765 c-12 -12 -29 15 -21 34 7 17 8 16 18 -5 5 -12 7 -25 3 -29z m24
-443 c0 -5 -4 -10 -10 -10 -5 0 -10 5 -10 10 0 6 5 10 10 10 6 0 10 -4 10 -10z
m-54 -72 c-18 -26 -22 -17 -5 14 6 11 13 17 16 15 3 -3 -2 -16 -11 -29z"/>
<path d="M5200 7549 c-194 -22 -478 -102 -650 -182 -688 -323 -1180 -982
-1276 -1710 -25 -188 -16 -490 20 -662 74 -354 227 -677 461 -972 91 -115 279
-309 380 -390 279 -226 618 -385 975 -459 128 -27 149 -28 400 -28 250 0 272
1 390 26 382 82 667 214 955 442 426 338 730 844 820 1365 114 666 -107 1345
-604 1855 -403 412 -854 647 -1371 711 -132 16 -375 18 -500 4z m585 -190 c6
-6 -122 -8 -353 -7 -233 2 -362 7 -362 13 0 13 701 8 715 -6z m65 7 c0 -2 -3
-12 -6 -20 -5 -13 -9 -14 -20 -5 -20 16 -17 29 6 29 11 0 20 -2 20 -4z m-759
-59 c-1 -12 -15 -9 -19 4 -3 6 1 10 8 8 6 -3 11 -8 11 -12z m749 -2 c0 -8 -4
-15 -10 -15 -5 0 -10 7 -10 15 0 8 5 15 10 15 6 0 10 -7 10 -15z m369 -50
c388 -148 742 -443 984 -822 61 -96 158 -296 197 -408 157 -449 145 -936 -35
-1370 -163 -395 -440 -736 -791 -972 -229 -155 -516 -269 -804 -320 -118 -20
-420 -25 -545 -9 -601 81 -1135 419 -1475 936 -121 185 -219 426 -265 656 -27
129 -43 295 -26 259 5 -11 10 -37 10 -58 2 -79 54 -209 101 -252 16 -14 20
-31 20 -81 0 -69 24 -137 59 -168 11 -11 21 -28 21 -38 0 -30 36 -93 70 -121
16 -14 30 -35 30 -47 0 -26 42 -99 71 -126 12 -10 29 -35 39 -54 10 -20 40
-56 67 -81 26 -25 53 -57 60 -71 6 -14 31 -41 54 -59 23 -19 61 -53 83 -76 88
-91 150 -115 204 -77 21 14 22 14 22 -6 0 -32 28 -92 58 -123 37 -39 105 -77
137 -77 17 0 34 -9 46 -24 20 -26 95 -56 140 -56 14 0 32 -6 38 -14 16 -19 96
-46 138 -46 19 0 48 -7 65 -16 21 -11 51 -15 97 -13 39 2 75 -2 89 -9 12 -7
51 -15 87 -19 76 -7 105 7 133 64 9 20 27 40 40 44 19 7 22 5 22 -17 0 -15 12
-38 29 -55 27 -27 35 -29 106 -29 70 0 79 2 104 28 27 26 30 27 62 14 45 -19
143 -11 195 16 47 24 101 81 110 117 7 30 14 31 56 5 75 -45 200 -17 273 61
36 39 52 49 78 49 50 1 113 34 166 90 26 27 56 50 66 50 23 0 309 286 320 320
4 13 18 32 30 42 62 49 235 377 243 461 3 30 14 64 26 80 15 21 21 45 22 97 2
47 9 78 21 96 28 43 31 179 5 230 -20 39 -20 40 -1 63 15 18 19 39 19 98 0 69
-2 77 -29 104 -26 26 -37 29 -89 29 -42 0 -66 5 -83 18 -53 40 -138 82 -168
82 -23 0 -42 -9 -63 -31 -30 -30 -31 -31 -24 -106 4 -42 11 -84 16 -93 5 -9 5
-22 0 -29 -4 -8 -11 -79 -15 -160 -5 -92 -12 -156 -21 -173 -8 -15 -17 -49
-20 -75 -10 -78 -142 -336 -229 -448 -79 -101 -213 -233 -263 -259 -17 -9 -39
-27 -50 -41 -11 -14 -26 -25 -32 -25 -7 0 -36 -15 -64 -34 -28 -18 -67 -38
-87 -44 -59 -16 -119 -61 -151 -113 -17 -27 -33 -49 -35 -49 -1 0 -20 9 -40
20 -21 11 -51 20 -68 20 -28 0 -27 2 24 31 72 42 145 119 181 193 39 79 44
139 70 801 11 286 29 721 41 966 18 406 19 452 5 519 -23 109 -91 243 -163
321 l-24 26 10 204 c13 262 8 258 200 184z m-1261 -157 l2 -187 -41 -28 c-67
-44 -134 -157 -163 -274 -14 -58 -16 -178 -16 -1115 0 -1169 -4 -1099 70
-1251 44 -89 100 -148 187 -195 92 -50 146 -58 443 -66 214 -5 261 -8 210 -14
-146 -19 -524 -10 -555 12 -5 4 -30 10 -55 14 -24 4 -49 11 -55 15 -5 5 -53
23 -105 41 -52 17 -104 39 -115 50 -39 35 -103 60 -155 60 -47 0 -50 1 -50 27
0 26 -2 28 -172 190 -36 34 -75 77 -87 96 -23 38 -105 117 -121 117 -5 0 -10
11 -10 25 0 37 -34 99 -73 132 -28 23 -35 37 -40 80 -7 60 -25 98 -68 148 -25
28 -31 44 -33 92 -3 52 -21 126 -47 191 -5 13 -9 42 -10 65 0 23 -6 76 -13
117 -11 62 -19 79 -45 102 -25 22 -41 28 -79 28 -59 0 -264 -35 -292 -50 -19
-10 -20 -9 -14 32 36 257 100 464 210 679 205 401 543 737 945 939 120 61 279
120 314 117 l30 -2 3 -187z m890 -36 c6 -17 -15 -653 -22 -659 -3 -3 -176 -2
-386 3 l-381 7 5 326 c4 179 6 330 6 334 0 5 174 7 386 6 327 -2 387 -5 392
-17z m-902 -351 c-9 -16 -21 -33 -27 -36 -32 -20 -54 -154 -39 -238 25 -139
149 -252 295 -271 28 -3 165 -7 305 -8 224 -1 261 1 305 16 72 26 127 68 170
127 49 69 65 118 65 204 0 79 -11 121 -47 173 -24 37 -30 62 -13 62 5 0 24
-28 41 -62 26 -52 33 -78 37 -150 6 -109 -17 -180 -85 -257 -114 -130 -168
-143 -549 -132 -318 10 -334 14 -429 102 -99 93 -137 199 -115 321 13 70 47
154 75 182 25 24 31 6 11 -33z m-8 -331 c-3 -14 -6 40 -5 120 l1 145 5 -120
c4 -66 3 -131 -1 -145z m1027 33 c-10 -68 -17 -44 -8 28 4 35 9 53 11 40 2
-13 1 -44 -3 -68z m-478 -125 c344 -2 419 -5 410 -16 -7 -9 -26 -11 -61 -8
-28 3 -229 8 -446 12 -224 3 -399 10 -405 15 -6 6 7 8 35 5 25 -3 235 -6 467
-8z m-508 -193 c32 -19 83 -41 113 -49 79 -20 579 -33 668 -16 78 14 165 58
230 117 27 24 50 40 53 36 2 -5 1 -48 -3 -98 -5 -49 -11 -153 -14 -230 -16
-348 -36 -832 -46 -1075 -13 -314 -22 -387 -56 -445 -33 -57 -103 -121 -162
-147 -58 -27 -228 -34 -492 -20 -163 8 -180 11 -233 36 -74 37 -159 128 -181
194 -15 43 -16 145 -16 932 l1 884 41 -42 c22 -23 66 -58 97 -77z m2259 -645
l52 0 0 -34 c0 -33 -1 -34 -54 -40 -41 -6 -67 -17 -107 -47 -88 -66 -89 -66
-89 -19 0 35 4 43 40 66 45 30 49 40 21 49 -39 12 -71 53 -71 89 l0 35 78 -49
c67 -44 84 -50 130 -50z m-3439 -139 c1 -62 -58 -93 -101 -54 -17 15 -18 15
-18 -4 0 -30 -24 -45 -67 -41 -30 2 -41 9 -51 31 -11 23 -26 96 -35 172 -2 17
10 21 123 40 l125 21 12 -66 c6 -36 12 -80 12 -99z m-352 -63 c-3 -8 -6 -5 -6
6 -1 11 2 17 5 13 3 -3 4 -12 1 -19z m3673 -8 c0 -17 -9 -39 -20 -50 -40 -40
-10 -89 62 -97 39 -5 47 -2 62 18 22 32 20 55 -5 73 -20 13 -21 18 -9 45 15
38 20 38 55 4 25 -26 27 -33 23 -91 -3 -51 -9 -67 -30 -88 -51 -51 -152 -49
-200 5 -23 25 -28 41 -28 82 0 54 19 102 47 118 31 18 43 12 43 -19z m-3281
-98 c12 -43 21 -85 21 -94 0 -27 -40 -67 -87 -88 -57 -25 -79 -25 -120 0 -26
16 -36 33 -58 101 -14 45 -24 83 -23 84 7 4 224 73 234 74 7 1 21 -34 33 -77z
m3301 -158 l118 -37 -12 -36 c-12 -34 -18 -37 -97 -62 -92 -29 -92 -31 11 -59
40 -11 42 -13 36 -42 -3 -18 -8 -33 -11 -36 -4 -4 -236 66 -243 73 -2 2 1 19
7 38 11 31 17 35 91 56 44 13 80 27 80 31 0 4 -29 15 -65 25 -62 16 -65 18
-59 44 8 31 13 41 21 41 3 0 59 -16 123 -36z m-3252 -54 c63 -38 91 -154 47
-190 -12 -10 -18 -8 -33 11 -16 18 -17 28 -8 50 8 23 7 32 -9 48 -45 51 -166
-11 -135 -69 13 -24 47 -43 60 -35 6 3 10 -3 10 -14 0 -10 3 -26 6 -35 5 -13
-1 -16 -28 -16 -64 0 -108 56 -108 138 0 49 29 88 84 113 53 24 73 24 114 -1z
m3073 -180 c5 0 -4 -26 -20 -59 l-30 -58 23 -11 c21 -9 25 -6 49 44 28 56 32
60 57 44 12 -8 11 -17 -13 -66 -15 -31 -27 -57 -25 -59 2 -1 13 -7 25 -13 19
-11 24 -7 54 52 32 62 34 63 56 49 l23 -15 -40 -78 c-67 -127 -50 -122 -176
-52 -60 34 -108 65 -107 69 1 5 21 44 44 87 29 55 46 76 56 72 8 -3 19 -6 24
-6z m-2899 -117 l16 -28 -78 -105 c-43 -57 -82 -106 -87 -107 -5 -2 -16 10
-25 25 -15 25 -15 31 -4 48 12 17 11 25 -10 59 -18 31 -29 39 -47 37 -17 -2
-29 5 -41 23 -10 15 -15 30 -11 33 12 13 250 59 260 51 6 -4 18 -20 27 -36z
m2823 -104 c21 -17 26 -29 23 -53 -3 -30 -2 -31 27 -28 16 2 47 0 68 -5 l37
-8 -22 -33 c-23 -32 -23 -32 -89 -26 -42 4 -69 2 -73 -4 -3 -6 12 -26 35 -44
l41 -34 -26 -39 c-14 -21 -26 -33 -26 -27 0 5 -43 44 -95 86 -52 42 -95 79
-95 82 0 4 14 25 32 48 84 110 112 124 163 85z m-2692 -81 c29 -32 37 -49 37
-79 0 -47 -15 -57 -44 -30 -16 15 -21 29 -18 50 3 22 -1 32 -17 41 -33 17 -38
-13 -12 -66 27 -56 27 -92 -1 -121 -30 -32 -78 -30 -118 3 -56 47 -76 118 -47
158 13 18 15 17 35 -9 15 -18 19 -35 16 -54 -6 -30 16 -61 42 -61 25 0 27 29
5 80 -28 66 -27 94 6 120 37 29 69 20 116 -32z m2527 -125 c16 -21 20 -35 15
-61 -4 -23 -3 -32 4 -27 6 3 37 -1 68 -10 l56 -16 -31 -32 -31 -31 -57 18
c-76 24 -89 11 -45 -45 l34 -41 -25 -24 -24 -24 -87 88 c-48 49 -87 94 -87 99
0 5 29 38 64 71 75 72 110 81 146 35z m-2390 -31 c0 -3 -14 -20 -30 -37 l-30
-31 36 -35 35 -34 30 33 30 33 30 -22 c26 -18 28 -23 16 -38 -7 -9 -46 -53
-87 -99 l-73 -82 -24 22 c-29 27 -29 30 7 71 17 19 30 37 30 40 0 3 -16 18
-36 33 l-36 28 -33 -40 -34 -39 -27 27 -27 26 83 96 83 95 29 -20 c15 -11 28
-23 28 -27z m2212 -166 c61 -89 65 -136 16 -183 -56 -52 -104 -66 -149 -43
-19 11 -119 151 -119 168 0 6 12 18 27 27 26 18 27 17 42 -4 85 -128 111 -150
147 -121 24 21 16 52 -31 122 -25 37 -45 70 -45 74 0 12 35 34 50 31 8 -1 36
-33 62 -71z m-1890 -75 c46 -17 78 -58 78 -97 0 -29 -3 -35 -16 -30 -9 3 -22
6 -30 6 -8 0 -14 8 -14 18 0 30 -35 55 -65 48 -33 -8 -66 -62 -63 -101 4 -36
47 -57 77 -38 15 10 23 8 41 -12 26 -28 21 -40 -24 -55 -39 -13 -93 4 -133 42
-71 67 -9 228 88 228 21 0 48 -4 61 -9z m1636 -35 c14 -13 13 -17 -8 -34 -19
-16 -29 -17 -47 -9 -32 14 -73 -14 -73 -52 0 -35 39 -95 65 -99 29 -4 57 20
58 50 2 22 8 27 35 30 30 4 32 2 32 -28 0 -59 -67 -114 -139 -114 -83 0 -148
129 -106 209 30 60 142 88 183 47z m-1365 -91 c9 -4 17 -14 17 -22 0 -8 7 -28
16 -44 14 -28 14 -32 -1 -49 -9 -10 -28 -21 -42 -25 -19 -4 -22 -9 -14 -19 7
-8 14 -37 18 -66 6 -52 6 -52 -18 -45 -47 14 -54 24 -64 82 -13 75 -36 83 -58
21 -12 -38 -17 -43 -42 -41 -16 1 -32 6 -37 11 -5 5 10 61 34 129 l42 120 66
-22 c36 -13 73 -26 83 -30z m982 -29 c39 -17 63 -56 71 -119 9 -62 -15 -103
-73 -129 -84 -37 -161 -7 -183 71 -27 99 5 160 95 182 45 11 53 10 90 -5z
m-887 -2 c26 -5 34 -14 49 -56 l18 -50 36 42 c31 36 41 42 63 36 38 -9 32 -31
-23 -92 -41 -45 -50 -61 -55 -106 l-7 -54 -36 4 -35 4 6 57 c6 52 3 65 -29
135 -19 42 -35 79 -35 82 0 6 12 5 48 -2z m682 -31 c-1 -31 -15 -53 -34 -53
-44 0 -48 -10 -39 -113 l9 -95 -37 -4 -37 -3 -9 100 -8 100 -42 -3 c-42 -3
-43 -3 -43 26 l0 30 78 7 c42 3 84 8 92 9 30 7 70 6 70 -1z m-292 -19 c14 -3
22 -12 22 -25 0 -11 5 -29 11 -41 26 -48 -15 -88 -91 -88 l-40 0 0 -50 0 -50
-41 0 -42 0 6 68 c4 37 7 98 7 135 l0 68 73 -6 c39 -3 82 -8 95 -11z"/>
<path d="M5140 7006 c-6 -6 -10 -64 -10 -143 l0 -133 44 0 44 0 7 136 c4 74 4
138 1 142 -11 11 -74 10 -86 -2z"/>
<path d="M5665 6898 c-4 -62 -5 -126 -3 -143 3 -26 7 -29 40 -31 20 0 41 2 46
5 5 3 11 67 13 141 l4 135 -46 3 -47 3 -7 -113z"/>
<path d="M5364 5513 c-53 -58 -174 -229 -174 -247 0 -30 36 -46 104 -46 l68 0
-6 -257 c-3 -142 -6 -260 -6 -263 0 -7 -120 114 -120 121 0 4 16 17 35 29 20
12 45 41 57 63 87 171 -135 332 -275 199 -80 -76 -76 -179 9 -250 21 -18 42
-36 46 -40 3 -4 43 -47 89 -97 45 -49 95 -102 111 -117 29 -25 31 -48 4 -48
-14 0 -59 -45 -75 -77 -15 -30 -14 -99 3 -131 19 -36 65 -78 99 -91 112 -43
237 43 237 162 0 53 -41 117 -89 137 -25 10 -31 18 -31 42 0 25 21 51 133 159
115 112 135 129 158 124 17 -4 34 1 51 14 24 19 25 26 31 148 8 172 7 173
-113 173 -50 0 -90 2 -90 5 0 3 5 14 12 24 10 16 0 36 -68 136 -85 126 -125
175 -144 175 -7 0 -32 -21 -56 -47z m53 -135 c-3 -8 -6 -5 -6 6 -1 11 2 17 5
13 3 -3 4 -12 1 -19z m-27 -38 c0 -5 -5 -10 -11 -10 -5 0 -7 5 -4 10 3 6 8 10
11 10 2 0 4 -4 4 -10z m65 0 c3 -5 1 -10 -4 -10 -6 0 -11 5 -11 10 0 6 2 10 4
10 3 0 8 -4 11 -10z m39 -137 c-5 -10 -10 -75 -12 -145 -4 -152 3 -173 54
-165 18 3 36 3 38 -1 7 -11 -113 -114 -124 -107 -7 4 -6 13 1 27 7 14 9 46 4
91 -3 38 -3 125 1 193 6 114 8 124 26 124 16 0 18 -4 12 -17z"/>
<path d="M3687 5384 c-24 -25 7 -82 39 -70 24 9 15 70 -11 74 -12 2 -24 0 -28
-4z"/>
<path d="M3580 5342 c0 -38 21 -65 43 -56 12 4 17 17 17 45 0 37 -2 39 -30 39
-26 0 -30 -4 -30 -28z"/>
<path d="M3698 5108 c-59 -20 -67 -32 -48 -69 13 -23 59 -25 99 -4 33 17 43
37 35 71 -7 28 -12 29 -86 2z"/>
<path d="M3945 4598 c-16 -5 -36 -11 -43 -14 -10 -3 -9 -10 4 -29 l17 -26 24
23 c28 26 48 58 36 57 -4 0 -21 -5 -38 -11z"/>
<path d="M6780 4454 l-25 -26 25 -20 24 -20 19 23 c21 26 19 62 -3 67 -9 1
-27 -9 -40 -24z"/>
<path d="M6602 4257 c-22 -23 -22 -24 -4 -40 25 -23 37 -21 56 7 32 50 -11 77
-52 33z"/>
<path d="M4809 3883 c-11 -30 -5 -39 32 -48 16 -4 30 -1 37 8 17 21 6 41 -29
54 -28 11 -31 10 -40 -14z"/>
<path d="M5789 3829 c-17 -17 -20 -28 -14 -57 12 -70 42 -94 90 -76 25 10 35
47 24 88 -18 66 -60 85 -100 45z"/>
<path d="M5307 3803 c-4 -3 -7 -19 -7 -35 0 -27 3 -29 32 -26 23 2 34 9 37 22
5 29 -43 59 -62 39z"/>
<path d="M6646 8588 c11 -20 214 -329 237 -363 12 -16 72 -106 134 -200 62
-93 126 -188 141 -210 16 -22 71 -103 122 -180 106 -158 210 -302 210 -291 0
11 -59 117 -75 136 -7 8 -23 35 -36 59 -28 52 -37 66 -64 106 -12 17 -27 44
-35 60 -8 17 -34 60 -57 97 -24 36 -43 74 -43 82 0 9 -4 16 -10 16 -5 0 -10 5
-10 12 0 6 -6 19 -14 27 -8 9 -21 34 -30 56 l-16 40 21 -25 c11 -14 30 -36 43
-50 12 -14 33 -41 47 -60 13 -19 49 -66 80 -105 31 -38 71 -91 89 -117 18 -27
36 -48 40 -48 4 0 37 -45 75 -100 37 -55 71 -100 76 -100 5 0 9 -7 9 -15 0 -8
5 -15 10 -15 6 0 10 2 10 3 0 8 -118 200 -195 317 -127 194 -198 303 -210 325
-6 11 -27 43 -46 71 -19 28 -50 76 -69 108 -19 31 -55 86 -80 121 -25 36 -72
108 -105 160 l-60 94 -98 1 c-76 0 -97 -3 -91 -12z"/>
<path d="M6962 8593 c2 -5 25 -39 51 -78 51 -75 483 -728 532 -807 17 -25 93
-139 170 -253 123 -182 220 -330 274 -416 9 -14 45 -68 81 -120 35 -52 71
-105 80 -119 8 -14 47 -75 87 -135 40 -61 133 -202 207 -315 74 -113 153 -232
176 -265 23 -33 69 -103 102 -155 94 -146 212 -324 225 -338 6 -7 35 -50 63
-97 28 -46 55 -87 61 -90 17 -11 9 -39 -25 -90 -18 -27 -103 -156 -188 -285
-85 -129 -220 -334 -300 -455 -80 -121 -179 -272 -220 -335 -41 -63 -97 -149
-124 -190 -27 -41 -58 -89 -69 -106 -11 -17 -67 -102 -125 -189 -58 -87 -205
-309 -327 -494 -122 -185 -244 -370 -273 -411 -212 -312 -390 -596 -390 -622
0 -9 7 -18 15 -22 9 -3 15 0 15 9 0 8 5 15 11 15 7 0 9 -10 7 -25 -3 -14 -2
-25 2 -25 6 0 157 208 211 292 13 20 58 88 100 150 42 62 134 201 204 308 70
107 165 251 210 320 45 69 138 211 207 315 256 391 383 583 457 694 137 204
204 305 242 366 21 33 53 80 70 105 79 115 419 640 419 647 0 8 -63 106 -139
218 -23 33 -74 110 -113 170 -105 163 -238 363 -614 930 -187 281 -341 515
-343 520 -2 6 -27 44 -55 86 -84 126 -575 874 -756 1152 l-95 146 -63 0 c-35
1 -62 -2 -60 -6z"/>
<path d="M8201 6265 c19 -43 44 -85 51 -85 13 0 9 17 -7 30 -8 7 -15 18 -15
25 0 7 -7 19 -17 26 -9 8 -14 10 -12 4z"/>
<path d="M8350 6255 c0 -8 4 -15 10 -15 5 0 7 7 4 15 -4 8 -8 15 -10 15 -2 0
-4 -7 -4 -15z"/>
<path d="M8370 6223 c0 -13 54 -109 76 -134 7 -8 24 -33 36 -55 13 -22 44 -72
71 -111 26 -39 47 -78 47 -86 0 -9 3 -17 8 -19 7 -3 65 -99 92 -153 8 -16 38
-65 67 -107 29 -43 53 -83 53 -88 0 -6 14 -16 30 -21 24 -9 30 -17 30 -39 0
-21 -8 -34 -30 -47 -16 -9 -30 -22 -30 -28 0 -11 -17 -39 -92 -153 -15 -24
-28 -48 -28 -53 0 -6 -8 -23 -19 -37 -10 -15 -47 -81 -81 -147 -34 -66 -67
-123 -73 -127 -7 -4 -8 -8 -3 -8 5 0 0 -10 -11 -22 -11 -13 -24 -34 -28 -48
-4 -14 -16 -37 -26 -52 -19 -27 -25 -58 -11 -58 4 0 16 15 27 33 10 17 38 58
62 89 24 31 43 60 43 63 0 4 17 30 38 58 20 28 51 73 67 99 17 26 52 81 79
121 27 39 69 104 94 142 25 39 57 87 70 108 l25 37 -29 38 c-16 20 -47 66 -69
102 -45 74 -338 512 -408 610 -73 102 -76 106 -77 93z"/>
<path d="M8260 6161 c0 -5 18 -36 39 -68 21 -32 77 -116 123 -188 47 -71 142
-217 211 -322 70 -106 127 -200 127 -208 0 -8 -24 -49 -53 -92 -28 -43 -74
-114 -102 -158 -43 -70 -139 -218 -245 -378 -17 -27 -30 -51 -27 -53 3 -4 122
158 191 261 15 22 37 54 49 70 87 119 127 175 127 180 0 3 11 18 25 33 14 15
25 32 25 38 0 6 9 19 20 29 11 10 20 26 20 35 0 10 7 20 15 24 28 10 18 74
-17 120 -18 22 -36 46 -41 51 -10 14 -48 68 -103 148 -25 37 -49 67 -53 67 -4
0 -13 11 -20 24 -7 13 -23 29 -35 36 -13 6 -28 26 -34 43 -7 18 -28 50 -48 72
-19 22 -42 55 -51 73 -8 17 -22 32 -29 32 -8 0 -14 9 -14 20 0 11 -4 20 -8 20
-5 0 -24 22 -43 50 -32 47 -49 61 -49 41z"/>
<path d="M8200 5936 c0 -9 5 -16 10 -16 6 0 10 4 10 9 0 6 -4 13 -10 16 -5 3
-10 -1 -10 -9z"/>
<path d="M8230 5896 c0 -9 5 -16 10 -16 6 0 10 4 10 9 0 6 -4 13 -10 16 -5 3
-10 -1 -10 -9z"/>
<path d="M8420 4612 c0 -5 -11 -22 -25 -38 -14 -16 -25 -34 -25 -41 0 -6 -5
-13 -11 -15 -7 -2 -10 -10 -8 -17 3 -7 22 12 44 45 48 71 50 74 36 74 -6 0
-11 -4 -11 -8z"/>
<path d="M7577 3553 c-4 -3 -7 -11 -7 -17 0 -6 5 -5 12 2 6 6 9 14 7 17 -3 3
-9 2 -12 -2z"/>
<path d="M7538 3495 c-10 -13 -18 -26 -18 -30 0 -3 -4 -11 -10 -18 -36 -44
-191 -268 -235 -339 -5 -9 -61 -91 -122 -183 -62 -91 -113 -168 -113 -171 0
-3 -27 -42 -59 -87 -32 -45 -92 -134 -132 -197 -40 -63 -82 -128 -94 -145 -20
-27 -95 -163 -95 -172 0 -5 54 30 61 40 3 4 13 5 23 1 10 -4 28 -1 42 6 31 17
40 7 26 -25 -24 -52 15 -11 95 100 81 112 136 195 308 460 54 83 123 188 154
235 32 47 88 135 125 195 38 61 76 121 85 135 10 14 20 32 24 40 4 8 16 29 26
45 23 35 25 45 11 45 -5 0 -10 -5 -10 -10 0 -6 -21 -40 -47 -75 -27 -36 -64
-88 -83 -115 -72 -104 -149 -208 -178 -239 -16 -18 -39 -51 -50 -74 -18 -36
-82 -111 -82 -96 0 6 83 167 134 259 20 36 39 72 42 80 4 8 17 28 28 45 25 35
95 163 103 188 3 9 9 17 14 17 5 0 9 7 9 16 0 9 9 29 21 45 25 35 22 57 -3 24z"/>
<path d="M9555 2030 c-98 -3 -160 -9 -159 -15 2 -20 183 -44 409 -54 132 -6
833 -11 1643 -11 l1412 0 0 45 0 45 -1572 -2 c-865 -1 -1645 -5 -1733 -8z"/>
<path d="M0 1985 l0 -47 1658 5 c1702 5 1838 8 1905 44 l32 18 -60 8 c-33 4
-842 10 -1797 13 l-1738 6 0 -47z"/>
<path d="M0 956 l0 -956 6430 0 6430 0 0 951 0 952 -2222 -7 c-2343 -7 -2538
-9 -2538 -33 0 -8 -4 -12 -9 -8 -6 3 -15 -3 -20 -14 -13 -23 -79 -63 -95 -58
-6 3 1 10 17 16 15 6 32 22 39 36 6 14 18 25 25 25 8 0 11 4 8 10 -7 12 -215
14 -215 2 0 -4 5 -13 11 -19 7 -7 9 -18 6 -26 -5 -15 -33 -20 -167 -32 -30 -3
-66 -8 -80 -12 -29 -8 -54 -9 -255 -16 -82 -3 -202 -9 -265 -12 -260 -15 -360
-16 -831 -11 -135 1 -250 6 -256 9 -6 4 -28 7 -50 6 -73 -1 -109 0 -193 5 -47
3 -110 7 -140 9 -30 2 -63 7 -73 12 -9 4 -30 2 -45 -4 -15 -5 -45 -9 -67 -7
-38 3 -53 7 -103 27 -12 5 -48 12 -80 15 -31 4 -60 12 -64 18 -5 8 -11 7 -19
-1 -9 -9 -18 -9 -40 2 -32 17 -84 11 -112 -13 -16 -15 -17 -14 -11 4 4 10 15
25 23 31 36 29 -18 32 -488 33 -260 0 -476 2 -480 4 -3 2 -921 8 -2039 12
l-2032 7 0 -957z m7960 904 c0 -5 -2 -10 -4 -10 -3 0 -8 5 -11 10 -3 6 -1 10
4 10 6 0 11 -4 11 -10z m4443 -908 l2 -272 -77 0 -77 0 -3 275 -3 276 78 -3
77 -3 3 -273z m-1616 243 c18 -19 17 -19 -2 -5 -16 11 -15 10 2 -7 24 -23 31
-63 12 -63 -5 0 -7 -5 -4 -10 9 -15 -15 -42 -31 -36 -8 3 -11 0 -7 -10 4 -11
-5 -14 -41 -14 -41 0 -59 11 -38 23 4 2 2 3 -5 1 -15 -3 -45 30 -36 40 4 4 1
11 -7 16 -11 7 -12 12 -3 21 6 6 9 17 7 24 -3 6 3 18 13 26 16 12 17 12 8 -2
-9 -14 -9 -14 4 0 22 24 105 21 128 -4z m690 0 c18 -19 17 -19 -2 -5 -16 11
-15 10 2 -7 24 -23 31 -63 12 -63 -5 0 -7 -5 -4 -10 9 -15 -15 -42 -31 -36 -8
3 -11 0 -7 -10 4 -11 -5 -14 -41 -14 -43 0 -60 11 -36 23 6 3 5 4 -2 3 -19 -5
-48 24 -41 40 3 8 0 14 -6 14 -8 0 -9 6 -3 18 5 9 8 22 5 28 -2 6 4 17 14 25
16 12 17 12 8 -2 -9 -14 -9 -14 4 0 22 24 105 21 128 -4z m-9473 4 c-4 -8 0
-9 15 -4 36 11 51 -16 51 -89 0 -39 -5 -68 -12 -72 -6 -4 -14 -2 -16 4 -2 6
-10 8 -19 5 -10 -4 -14 -2 -10 4 4 6 -3 8 -18 5 -15 -2 -25 0 -25 7 0 6 -9 11
-20 11 -11 0 -20 -5 -20 -11 0 -6 -9 -9 -20 -6 -13 3 -18 1 -13 -6 4 -7 0 -8
-13 -3 -10 4 -16 4 -12 1 8 -8 -24 -43 -34 -38 -4 2 -5 -4 -1 -13 3 -10 2 -15
-3 -12 -5 4 -9 -17 -9 -47 0 -30 4 -51 9 -47 5 3 6 -2 3 -12 -5 -11 -3 -15 5
-10 7 5 9 2 5 -8 -7 -20 11 -38 31 -31 10 4 13 2 8 -5 -5 -8 -2 -10 8 -6 9 3
16 2 16 -3 0 -4 18 -8 39 -8 22 0 37 4 34 9 -4 5 3 7 15 4 12 -4 20 -3 17 1
-2 5 8 8 23 7 27 -1 27 -2 26 -66 0 -78 -8 -94 -40 -86 -13 4 -24 3 -24 -2 0
-5 -36 -8 -80 -8 -44 1 -80 5 -80 9 0 5 -10 5 -21 2 -16 -5 -19 -4 -14 6 6 9
3 11 -8 6 -10 -3 -17 -2 -17 4 0 6 -5 7 -10 4 -14 -9 -94 71 -85 85 3 5 2 10
-4 10 -6 0 -7 7 -4 17 5 11 3 14 -6 8 -10 -5 -11 -2 -6 14 4 12 2 21 -4 21 -6
0 -11 7 -11 15 0 8 -6 12 -14 9 -8 -3 -12 -13 -8 -26 4 -16 2 -19 -8 -13 -10
6 -12 4 -7 -8 4 -10 1 -17 -5 -17 -6 0 -8 -3 -5 -7 4 -3 -1 -12 -11 -20 -10
-9 -11 -12 -2 -7 27 13 -54 -67 -83 -83 -16 -8 -35 -12 -43 -9 -8 3 -13 2 -10
-2 2 -4 -65 -7 -150 -7 l-154 0 2 260 3 260 143 3 c94 2 142 -1 142 -8 0 -6
10 -8 26 -4 20 5 25 4 19 -6 -5 -9 -2 -10 12 -6 11 3 27 -1 39 -10 10 -8 13
-12 5 -8 -9 4 -12 3 -7 -4 4 -6 13 -9 21 -6 21 8 78 -84 70 -113 -3 -13 -1
-23 5 -23 5 0 11 -8 11 -17 1 -17 2 -17 6 0 2 9 9 15 14 12 5 -3 6 1 3 9 -20
53 130 199 186 181 12 -4 20 -2 20 4 0 7 27 11 71 11 49 0 68 -3 63 -11z m946
1 c-11 -7 -4 -9 25 -7 l40 2 3 -77 c2 -45 -1 -78 -7 -78 -21 0 -41 13 -35 22
4 6 -2 7 -16 3 -12 -4 -20 -3 -17 1 3 5 -16 9 -43 9 -45 0 -48 -1 -46 -27 1
-15 -2 -25 -6 -22 -4 3 -8 13 -9 22 0 11 -2 12 -6 4 -7 -18 16 -42 34 -35 11
4 14 2 9 -5 -5 -8 -1 -10 10 -5 12 4 15 3 10 -5 -5 -8 -2 -10 8 -6 10 4 16 1
16 -7 0 -7 3 -9 7 -6 3 4 12 -1 20 -11 8 -9 11 -11 8 -4 -13 24 30 -4 59 -39
17 -20 25 -38 21 -50 -4 -11 -2 -19 4 -19 6 0 11 -13 11 -30 0 -16 -5 -30 -11
-30 -6 0 -8 -8 -4 -20 4 -14 -4 -30 -31 -57 -20 -21 -33 -31 -28 -23 7 13 6
13 -6 0 -9 -9 -22 -14 -29 -12 -9 3 -11 0 -6 -8 5 -9 2 -10 -15 -5 -13 4 -20
3 -17 -2 3 -5 -31 -9 -79 -9 -46 0 -84 4 -84 9 0 4 -10 5 -21 2 -16 -5 -19 -4
-14 5 5 9 2 10 -14 5 -20 -6 -21 -3 -21 74 0 44 3 82 8 85 10 6 43 -20 35 -28
-4 -4 1 -4 11 0 13 5 17 4 12 -4 -5 -8 -2 -10 8 -6 9 3 16 2 16 -4 0 -6 9 -8
20 -5 11 3 20 0 20 -6 0 -6 10 -11 23 -11 18 0 19 2 7 11 -12 9 -11 10 7 6 13
-3 26 0 30 5 3 6 1 8 -4 5 -6 -4 -13 5 -16 20 -5 26 -4 26 9 8 8 -10 14 -14
14 -8 0 12 -18 27 -35 29 -5 0 -16 2 -23 2 -7 1 -10 7 -6 13 4 7 0 9 -13 5
-13 -4 -33 4 -61 24 -46 33 -65 61 -56 84 3 9 1 16 -5 16 -6 0 -11 16 -11 35
0 19 5 35 11 35 6 0 8 8 4 19 -12 39 84 119 127 105 14 -4 18 -2 14 5 -5 8 16
11 71 11 54 0 73 -3 63 -10z m1760 1 c0 -6 12 -9 28 -8 27 2 27 2 30 -72 2
-41 -1 -78 -6 -83 -11 -11 -44 1 -36 13 3 5 -9 6 -26 3 -19 -4 -30 -2 -30 5 0
6 -9 11 -20 11 -11 0 -20 -5 -20 -11 0 -6 -9 -9 -20 -6 -12 3 -18 1 -14 -5 4
-6 1 -8 -7 -6 -20 7 -49 -21 -42 -40 4 -10 2 -13 -5 -8 -8 5 -10 2 -6 -8 3 -9
2 -16 -3 -16 -4 0 -9 -18 -9 -40 -1 -23 3 -37 8 -34 6 4 8 -2 4 -14 -4 -12 -2
-23 5 -28 8 -5 10 -3 4 7 -5 8 1 6 13 -5 12 -10 20 -23 19 -30 -1 -6 8 -10 22
-8 13 2 21 0 18 -5 -3 -5 12 -8 33 -8 21 0 36 4 33 9 -4 5 6 6 21 2 17 -4 25
-3 22 3 -7 11 22 24 35 15 14 -8 11 -151 -3 -160 -16 -10 -218 -13 -218 -3 0
4 -8 5 -17 3 -22 -6 -108 47 -123 77 -10 17 -9 20 2 14 7 -3 5 0 -4 8 -10 8
-15 17 -11 20 3 4 1 7 -6 7 -8 0 -11 6 -7 16 4 10 2 13 -6 8 -8 -5 -9 1 -4 20
4 18 3 25 -4 21 -6 -4 -10 17 -10 60 0 36 4 64 9 61 4 -3 6 6 3 21 -3 18 -1
24 6 19 8 -5 10 -2 6 8 -4 10 -1 16 7 16 7 0 9 3 6 7 -4 3 1 12 11 20 10 9 11
11 2 7 -29 -16 15 39 60 74 29 23 48 31 62 26 15 -4 18 -3 13 7 -6 9 -2 11 13
7 12 -4 22 -2 22 3 0 5 32 9 70 9 39 0 70 -4 70 -9z m2386 0 c-3 -5 9 -8 27
-7 l32 1 0 -79 c0 -81 -9 -100 -36 -74 -16 15 -141 18 -131 4 3 -5 -2 -6 -12
-3 -9 4 -14 3 -11 -2 6 -10 -12 -25 -30 -26 -5 0 -9 -8 -7 -18 2 -9 -1 -17 -5
-17 -4 0 -8 -22 -8 -49 0 -27 3 -47 7 -44 5 2 9 -2 10 -9 0 -7 2 -17 2 -23 3
-22 17 -34 33 -28 11 4 14 3 9 -5 -5 -8 -2 -10 8 -6 9 3 16 2 16 -3 0 -4 18
-8 39 -8 22 0 37 4 34 9 -4 5 3 7 15 4 12 -4 20 -3 17 2 -6 9 35 21 47 14 4
-3 8 -36 8 -73 0 -75 -13 -98 -51 -86 -13 4 -19 3 -16 -2 4 -6 -29 -10 -83 -9
-49 0 -86 4 -83 9 3 5 -4 6 -17 2 -17 -5 -20 -4 -15 5 5 8 3 11 -6 8 -8 -3
-20 2 -27 11 -8 9 -10 10 -7 3 6 -11 3 -12 -11 -4 -44 24 -100 111 -90 138 3
9 1 12 -4 9 -6 -4 -10 24 -10 75 0 57 3 79 11 74 7 -4 9 0 5 14 -20 62 124
206 186 186 14 -4 18 -2 14 5 -5 8 16 11 69 11 42 0 74 -4 71 -9z m-6126 -10
c0 -5 10 -7 22 -3 15 4 19 2 13 -7 -5 -10 -2 -11 12 -7 22 7 80 -45 69 -63 -4
-6 -1 -20 6 -31 11 -17 11 -22 -1 -29 -7 -5 -10 -14 -6 -21 9 -14 -34 -62 -48
-53 -6 3 -7 1 -3 -5 3 -6 -2 -16 -11 -22 -16 -10 -16 -10 3 -5 14 3 28 -3 46
-22 29 -30 57 -90 37 -77 -9 5 -10 -4 -5 -30 5 -24 3 -36 -4 -36 -6 0 -8 -5
-5 -10 4 -6 -12 -28 -35 -50 -31 -30 -48 -39 -62 -34 -15 4 -18 3 -13 -6 6
-10 0 -12 -25 -7 -18 4 -88 7 -156 7 l-123 0 -3 260 -3 260 148 0 c81 0 147
-4 147 -9z m1504 -13 c-1 -10 3 -18 8 -18 5 0 6 -10 3 -21 -5 -16 -4 -19 5
-14 9 5 10 1 5 -15 -5 -16 -4 -20 5 -15 9 5 10 1 5 -15 -5 -17 -4 -21 6 -15 9
6 11 2 7 -13 -4 -14 -2 -20 5 -15 6 4 8 -2 5 -15 -4 -14 -2 -20 4 -16 7 5 9
-2 4 -20 -5 -20 -3 -26 5 -21 8 5 9 1 4 -15 -5 -16 -4 -20 5 -15 9 5 10 1 5
-15 -5 -17 -4 -21 6 -15 9 6 11 2 7 -13 -4 -12 -2 -22 4 -22 6 0 8 -7 4 -15
-3 -8 -1 -15 5 -15 6 0 8 -9 4 -21 -5 -16 -4 -19 5 -14 9 5 10 1 5 -15 -5 -16
-4 -20 5 -15 9 5 10 1 5 -15 -5 -17 -4 -21 6 -15 9 6 11 2 7 -13 -3 -12 -1
-23 5 -25 6 -2 7 -9 3 -15 -5 -8 -37 -12 -89 -12 -61 0 -78 -3 -67 -11 13 -9
13 -10 0 -6 -9 2 -14 14 -13 26 2 15 -1 20 -8 15 -8 -5 -10 1 -6 18 8 32 -5
38 -76 38 -63 -1 -89 -17 -80 -50 5 -18 3 -21 -7 -15 -9 6 -12 4 -8 -6 5 -12
-10 -13 -83 -11 -71 3 -89 6 -89 18 0 8 4 13 9 10 5 -4 7 4 3 16 -3 13 -1 19
5 15 7 -5 9 1 5 15 -3 13 -1 19 5 15 7 -5 9 1 5 15 -3 13 -1 19 5 15 7 -5 9 1
5 15 -3 13 -1 19 5 15 7 -5 9 1 5 15 -3 13 -1 19 5 15 7 -5 9 1 5 15 -3 13 -1
19 5 15 7 -5 9 1 5 15 -3 13 -1 19 5 15 7 -5 9 1 5 15 -3 13 -1 19 5 15 7 -5
9 1 5 15 -3 13 -1 19 5 15 7 -5 9 1 5 15 -3 13 -1 19 5 15 7 -5 9 1 5 15 -3
13 -1 19 5 15 7 -5 9 1 5 15 -3 13 -1 19 5 15 7 -5 9 1 5 15 -3 13 -1 19 5 15
7 -5 9 1 5 15 -3 13 -1 19 5 15 7 -5 9 1 5 15 -4 16 -2 19 8 13 9 -5 11 -4 6
4 -4 7 -5 19 -2 27 5 12 25 14 108 12 91 -3 103 -5 102 -20z m758 -80 c-1 -57
1 -98 5 -93 5 6 40 10 78 10 l70 0 5 90 5 90 85 0 85 0 3 -257 2 -258 -87 -2
c-79 -1 -83 -2 -38 -8 l50 -8 -50 2 -50 1 -5 98 c-3 60 -1 99 5 101 6 3 -29 5
-77 5 l-88 1 0 -95 0 -95 -80 0 -80 0 0 253 c0 140 3 257 7 260 3 4 40 7 82 7
l76 0 -3 -102z m7158 91 c0 -7 10 -9 26 -5 18 5 24 3 19 -5 -5 -8 -1 -9 14 -4
16 5 29 -3 58 -32 20 -21 28 -27 17 -13 -17 22 -17 23 -1 11 24 -19 45 -56 25
-46 -7 3 -6 1 3 -7 9 -7 14 -19 11 -27 -3 -9 0 -11 8 -6 9 5 10 2 5 -15 -4
-13 -3 -20 2 -17 5 3 9 -30 9 -78 -1 -46 -5 -81 -10 -78 -4 3 -5 -4 -1 -16 4
-13 2 -21 -5 -21 -6 0 -8 -5 -5 -11 7 -10 -39 -89 -51 -89 -4 0 -3 6 2 13 5 7
-2 1 -16 -14 -32 -35 -64 -51 -86 -42 -13 5 -15 3 -9 -7 6 -10 1 -12 -25 -7
-18 4 -88 7 -156 7 l-124 0 0 253 c0 140 3 257 7 260 12 12 283 8 283 -4z
m-4200 -84 l0 -65 45 0 45 0 0 -38 c0 -27 4 -39 15 -39 8 0 12 4 9 9 -9 14 38
59 54 53 7 -2 10 -1 7 4 -7 12 31 24 46 15 7 -4 9 -3 6 3 -4 6 22 10 68 10 44
0 72 -4 68 -10 -3 -5 3 -6 14 -3 23 7 78 -27 102 -64 14 -20 14 -23 1 -16 -8
4 -7 1 4 -8 10 -8 15 -20 10 -27 -4 -7 -3 -10 3 -6 13 8 21 -37 15 -87 -2 -20
-8 -33 -14 -30 -6 4 -8 -1 -4 -12 12 -39 -76 -133 -111 -119 -7 2 -13 0 -13
-6 0 -6 -21 -8 -52 -5 -40 4 -47 3 -28 -4 19 -7 12 -7 -25 -3 -79 9 -168 64
-150 93 3 6 1 9 -7 8 -7 -2 -15 -21 -18 -43 -3 -25 -10 -39 -17 -37 -7 1 -13
-2 -13 -6 0 -5 -29 -8 -64 -8 -35 1 -62 5 -59 9 3 5 -1 8 -8 6 -29 -3 -39 2
-56 28 -14 21 -18 48 -18 127 l0 101 -33 0 -33 0 3 59 c3 56 5 60 31 67 15 4
27 3 27 -1 0 -5 -11 -11 -25 -13 -23 -4 -23 -4 2 -3 26 1 28 4 28 43 0 37 2
42 19 37 13 -4 16 -3 11 7 -6 9 -2 11 13 7 14 -4 20 -2 16 4 -5 7 2 9 20 4 20
-5 26 -4 20 5 -5 9 -1 10 14 7 12 -4 20 -2 16 3 -3 5 0 9 5 9 7 0 11 -26 11
-65z m5565 -63 l45 3 0 -55 0 -55 -42 0 -43 0 -3 -57 c-2 -37 1 -58 8 -58 6 0
10 -7 8 -16 -2 -12 6 -17 30 -20 20 -2 31 0 27 6 -3 5 0 7 9 4 8 -3 17 -13 19
-22 3 -10 3 2 1 25 -3 33 1 47 19 66 12 13 18 16 12 7 -5 -9 -1 -6 10 5 12 12
27 19 34 17 9 -3 11 0 6 8 -5 9 -2 10 14 5 13 -4 21 -2 21 6 0 8 11 10 34 6
25 -4 36 -1 40 9 3 9 11 12 17 8 8 -4 9 -3 5 4 -4 6 -14 8 -23 5 -10 -4 -14
-2 -10 4 4 6 -6 10 -23 11 -17 0 -30 -4 -30 -10 0 -6 -9 -8 -20 -5 -13 3 -18
1 -13 -6 4 -6 -2 -8 -15 -5 -12 4 -20 3 -17 -2 3 -4 -2 -11 -10 -14 -21 -8
-27 11 -23 70 2 39 6 49 21 48 9 -1 17 3 17 8 0 5 9 6 20 3 11 -3 20 -2 20 3
0 5 33 8 74 8 41 0 72 -4 69 -9 -3 -5 4 -6 15 -3 14 5 28 -1 44 -16 13 -13 17
-18 8 -13 -9 6 -6 1 5 -10 12 -12 19 -27 17 -34 -3 -9 0 -11 7 -7 8 6 10 0 5
-18 -4 -16 -2 -26 5 -26 7 0 11 -39 11 -120 l0 -120 -77 0 c-54 0 -73 -3 -63
-10 9 -6 10 -10 3 -10 -19 0 -34 35 -21 48 7 7 10 12 7 12 -3 0 -14 -10 -25
-22 -13 -14 -14 -19 -4 -14 9 5 9 2 -2 -7 -26 -21 -132 -16 -158 8 -11 10 -18
25 -15 32 2 8 0 11 -5 8 -6 -3 -11 0 -11 7 -1 7 -5 -3 -8 -22 -4 -20 -12 -34
-19 -32 -7 1 -12 -2 -12 -7 0 -4 -32 -8 -71 -7 -62 2 -73 5 -91 27 -11 13 -17
18 -13 12 3 -7 4 -13 1 -13 -3 0 -12 12 -19 28 -10 19 -13 54 -9 125 l4 97
-41 0 -40 0 -3 -137 -3 -138 -35 -2 -35 -1 35 8 c26 6 15 8 -48 7 l-82 -2 0
185 0 185 126 -2 126 -1 -4 44 c-3 39 -1 43 16 38 13 -4 16 -3 11 7 -6 9 -2
11 13 7 12 -4 22 -2 22 4 0 5 10 6 21 3 16 -5 19 -4 14 6 -6 9 -2 11 13 7 13
-4 23 -1 24 5 1 7 4 -19 5 -56 l4 -69 44 4z m-5540 18 c3 -5 1 -10 -4 -10 -6
0 -11 5 -11 10 0 6 2 10 4 10 3 0 8 -4 11 -10z m5345 0 c0 -5 -5 -10 -11 -10
-5 0 -7 5 -4 10 3 6 8 10 11 10 2 0 4 -4 4 -10z m220 -6 c0 -2 -13 -4 -30 -4
-16 0 -30 4 -30 8 0 5 14 7 30 4 17 -2 30 -6 30 -8z m-6862 -1 c-21 -2 -55 -2
-75 0 -21 2 -4 4 37 4 41 0 58 -2 38 -4z m247 -3 l-80 -6 89 -2 88 -2 -6 -26
c-5 -19 -3 -24 5 -18 9 5 10 1 7 -14 -4 -14 -2 -20 4 -15 8 4 9 -5 5 -28 -5
-26 -4 -30 4 -19 8 11 9 7 6 -20 -3 -19 -3 -29 0 -22 4 10 8 10 20 1 12 -11
13 -8 7 16 -5 20 -4 26 4 21 8 -5 10 3 6 26 -4 25 -3 29 5 18 8 -11 9 -7 4 19
-4 23 -3 32 5 28 6 -5 8 0 5 13 -5 19 0 20 78 22 l84 1 -65 7 -65 7 62 1 c34
1 64 -2 67 -7 3 -4 44 -9 92 -10 61 -2 84 1 79 9 -4 7 1 7 14 -1 16 -11 18
-16 8 -29 -7 -9 -3 -6 8 5 12 12 27 19 34 17 8 -3 11 0 8 5 -10 15 105 9 129
-7 30 -19 55 -65 47 -86 -4 -10 -2 -15 4 -11 6 4 10 -21 10 -68 0 -41 -4 -75
-8 -75 -5 0 -6 -7 -3 -15 4 -8 1 -15 -6 -15 -6 0 -8 -5 -4 -11 3 -6 -7 -23
-23 -37 -16 -15 -20 -20 -9 -12 19 14 20 14 7 -3 -8 -10 -24 -23 -35 -29 -23
-13 -138 -19 -131 -7 3 4 -4 5 -15 2 -18 -5 -20 -14 -20 -87 l0 -81 -85 0 -85
0 0 261 c0 226 -2 261 -15 261 -11 0 -13 -6 -9 -20 4 -14 3 -17 -6 -12 -9 5
-10 1 -5 -15 5 -14 3 -20 -3 -16 -6 4 -8 -2 -4 -16 3 -13 1 -19 -5 -15 -7 5
-9 -1 -5 -15 3 -13 1 -19 -5 -15 -7 5 -9 -1 -5 -15 3 -14 1 -19 -6 -14 -8 5
-10 2 -6 -8 3 -9 1 -16 -5 -16 -6 0 -8 -7 -5 -15 4 -8 1 -15 -5 -15 -6 0 -8
-7 -4 -17 5 -11 3 -14 -6 -8 -10 6 -11 2 -6 -15 5 -16 4 -20 -5 -15 -9 5 -10
1 -5 -15 5 -16 4 -20 -5 -15 -9 5 -10 1 -5 -15 5 -16 4 -20 -5 -15 -9 5 -10 1
-5 -15 5 -17 4 -21 -5 -15 -9 5 -11 4 -6 -4 10 -16 -3 -53 -16 -45 -7 5 -9 1
-5 -9 7 -19 -28 -74 -63 -96 -14 -9 -21 -11 -17 -4 6 9 3 11 -7 7 -9 -3 -13
-11 -10 -16 4 -6 -2 -8 -15 -3 -12 4 -21 2 -21 -4 0 -6 -13 -11 -30 -11 -16 0
-30 5 -30 11 0 6 -9 8 -20 4 -32 -10 -50 17 -50 77 0 47 3 54 20 55 11 1 18
-2 15 -7 -3 -6 0 -8 7 -6 45 14 69 16 62 5 -4 -8 -3 -9 4 -5 6 4 8 14 5 23 -4
9 -2 14 3 11 5 -4 9 7 9 22 0 15 -3 26 -7 24 -10 -6 -20 34 -12 47 4 7 3 9 -3
6 -14 -9 -24 18 -16 40 4 10 2 14 -4 10 -14 -9 -24 18 -16 40 4 10 2 14 -4 10
-12 -8 -26 20 -17 34 3 5 0 9 -6 9 -7 0 -9 7 -6 16 4 10 2 13 -6 8 -8 -5 -9
-2 -5 10 5 11 3 15 -5 10 -7 -5 -9 0 -6 14 4 14 2 19 -7 15 -8 -3 -15 5 -18
19 -2 13 -5 -3 -6 -34 0 -33 -6 -58 -12 -58 -5 0 -8 3 -6 8 3 4 -10 7 -28 7
-18 0 -31 -2 -29 -4 7 -7 -18 -31 -27 -25 -5 3 -6 -2 -3 -10 3 -9 1 -16 -5
-16 -7 0 -11 -31 -11 -90 l0 -90 -80 0 -80 0 0 180 0 180 80 0 c79 0 80 0 80
-26 0 -14 4 -23 9 -20 5 3 7 15 4 27 -5 16 -1 20 13 19 33 -4 45 0 39 10 -4 6
35 9 112 8 117 -2 117 -2 38 -8z m408 3 c-7 -2 -19 -2 -25 0 -7 3 -2 5 12 5
14 0 19 -2 13 -5z m1754 1 c-3 -3 -12 -4 -19 -1 -8 3 -5 6 6 6 11 1 17 -2 13
-5z m201 -1 c-21 -2 -55 -2 -75 0 -21 2 -4 4 37 4 41 0 58 -2 38 -4z m387 -72
c0 -55 -4 -76 -14 -79 -8 -3 -11 0 -8 5 7 11 -62 11 -80 0 -7 -4 -9 -15 -6
-24 4 -9 2 -14 -3 -11 -5 4 -8 -34 -6 -92 l3 -98 -85 -4 -86 -3 0 185 0 185
87 -5 c63 -4 87 -9 86 -17 -4 -18 2 -16 18 4 12 14 12 16 -1 9 -8 -4 -6 0 5 9
12 10 34 15 55 13 l35 -3 0 -74z m308 2 c-2 -56 0 -72 7 -58 10 20 10 20 7 0
-1 -11 -11 -21 -21 -23 -10 -2 -16 0 -13 5 3 4 -10 8 -28 8 -18 0 -31 -2 -29
-4 6 -6 -17 -31 -25 -27 -3 2 -4 -18 -2 -46 1 -27 0 -74 -4 -104 l-6 -54 -75
0 -74 0 0 180 0 180 78 0 c83 0 99 -5 81 -27 -19 -22 -3 -15 17 9 13 14 14 19
4 14 -8 -4 -6 0 4 8 11 9 34 16 50 16 l31 0 -2 -77z m287 65 c0 -4 6 -5 14 -2
8 3 27 -7 43 -23 16 -15 19 -21 8 -13 -12 8 -6 1 13 -17 22 -20 32 -38 29 -48
-4 -8 -2 -15 3 -15 6 0 10 -26 10 -57 l0 -58 -115 3 c-63 2 -115 -1 -115 -5 0
-17 22 -31 38 -26 8 4 13 2 10 -3 -4 -5 17 -9 47 -9 29 0 52 2 49 4 -6 7 30
30 46 30 12 0 11 -3 -3 -13 -11 -9 -14 -15 -7 -18 15 -5 16 -81 1 -86 -6 -2
-8 -9 -4 -14 4 -7 -2 -9 -15 -6 -12 4 -22 3 -22 -1 0 -4 -36 -7 -79 -7 -46 1
-77 5 -73 10 3 5 -2 6 -12 3 -22 -9 -81 26 -97 55 -8 15 -8 19 0 14 7 -5 9 -1
5 8 -3 9 -10 14 -14 11 -13 -8 -18 22 -18 98 0 46 3 65 10 61 7 -4 8 -2 4 4
-15 25 60 122 83 107 6 -3 11 -1 11 5 0 7 7 9 16 6 8 -3 13 -2 10 2 -3 5 24 8
60 8 35 0 64 -3 64 -8z m515 -8 c38 -32 43 -60 38 -213 l-6 -147 -79 0 -79 0
3 119 c2 76 -1 119 -7 118 -5 -1 -9 5 -7 13 3 12 1 13 -9 3 -16 -16 -33 -17
-23 -1 4 6 3 8 -4 5 -5 -4 -8 -17 -5 -30 4 -18 3 -19 -6 -7 -8 11 -11 -16 -11
-102 l0 -118 -80 0 -80 0 0 180 0 180 80 0 c73 0 80 -2 80 -20 0 -11 4 -20 9
-20 5 0 7 10 3 23 -5 19 -3 20 10 9 13 -10 18 -10 24 -1 5 8 3 10 -7 5 -8 -4
-6 -1 3 7 22 18 130 16 153 -3z m415 8 c0 -6 32 -8 80 -6 61 2 79 0 75 -9 -2
-7 1 -13 6 -13 6 0 9 -9 6 -20 -3 -11 -1 -20 5 -20 6 0 7 -11 4 -26 -5 -18 -3
-24 5 -18 9 5 10 -1 5 -20 -4 -18 -3 -25 4 -21 5 3 10 2 10 -4 0 -6 6 -8 14
-5 8 3 11 15 8 31 -3 18 -1 24 7 19 9 -6 10 0 5 20 -5 20 -4 25 6 19 9 -5 10
-2 5 14 -3 11 -4 29 -1 39 5 15 16 16 83 12 66 -4 78 -8 81 -24 3 -11 0 -16
-7 -12 -7 5 -9 1 -5 -8 3 -9 2 -16 -4 -16 -6 0 -8 -10 -4 -22 3 -14 1 -19 -6
-14 -8 5 -10 2 -6 -8 3 -9 1 -16 -5 -16 -6 0 -8 -7 -4 -17 5 -11 3 -14 -6 -8
-10 6 -11 2 -6 -15 5 -16 4 -20 -5 -15 -9 5 -10 1 -5 -15 5 -16 4 -20 -5 -15
-9 5 -10 1 -5 -15 5 -16 4 -20 -5 -15 -9 5 -10 1 -5 -15 5 -14 3 -20 -3 -16
-6 4 -8 -2 -4 -16 3 -13 1 -19 -5 -15 -7 5 -9 -1 -5 -15 3 -13 1 -19 -5 -15
-7 5 -9 -1 -5 -15 3 -14 1 -19 -6 -14 -8 5 -10 2 -6 -8 3 -9 1 -16 -5 -16 -6
0 -8 -7 -4 -17 5 -12 3 -14 -7 -8 -10 6 -12 4 -7 -8 3 -10 2 -17 -4 -17 -6 0
-8 -4 -4 -10 8 -14 -66 -92 -82 -86 -7 3 -13 1 -13 -5 0 -6 -9 -8 -20 -4 -11
4 -20 2 -20 -4 0 -6 -11 -11 -25 -11 -14 0 -25 5 -25 11 0 7 -11 8 -29 4 -16
-3 -31 -2 -34 2 -3 5 -7 35 -8 67 -3 55 -1 59 20 63 12 2 20 0 18 -4 -3 -5 10
-8 28 -8 18 0 33 5 32 10 -1 6 3 9 10 8 8 -2 10 4 6 14 -4 9 -2 14 3 10 6 -3
11 3 11 14 1 11 -2 17 -7 14 -11 -7 -21 22 -13 42 5 12 3 14 -7 8 -10 -6 -12
-4 -7 8 3 10 2 17 -3 17 -5 0 -6 7 -3 17 4 10 2 14 -4 10 -14 -9 -24 18 -16
40 4 10 2 14 -4 10 -12 -8 -26 20 -17 34 3 5 0 9 -6 9 -7 0 -9 7 -6 16 4 10 2
13 -6 8 -8 -5 -9 -2 -5 10 4 10 3 15 -3 11 -6 -3 -10 -1 -10 4 0 6 -4 11 -10
11 -5 0 -7 -6 -4 -14 3 -7 -2 -16 -10 -19 -19 -8 -48 2 -41 13 8 13 -59 6 -73
-8 -8 -7 -18 -10 -23 -7 -5 4 -6 -2 -2 -11 3 -10 2 -15 -3 -12 -5 4 -9 -11 -9
-32 0 -21 4 -36 9 -32 5 3 7 -2 3 -11 -3 -9 -1 -19 5 -23 7 -4 8 -3 4 4 -8 14
-5 15 19 6 10 -4 12 -9 6 -13 -5 -4 8 -6 29 -6 21 0 36 3 34 7 -5 8 35 22 43
14 9 -8 9 -116 0 -116 -5 0 -5 -5 -1 -11 4 -8 -1 -9 -16 -4 -14 5 -20 3 -16
-3 4 -7 -21 -10 -69 -9 -41 1 -75 6 -75 10 0 5 -9 6 -19 2 -21 -6 -82 41 -103
79 -13 24 -19 178 -6 170 4 -3 5 2 2 11 -14 36 84 123 122 108 10 -4 15 -2 11
3 -3 6 32 10 89 11 56 1 94 -3 94 -9z m1614 1 c-2 -4 3 -10 12 -13 8 -3 13 -2
10 2 -3 5 36 6 86 4 72 -4 89 -2 83 8 -5 9 -4 11 3 6 16 -10 17 -386 1 -386
-6 0 -8 -9 -4 -21 5 -16 4 -19 -5 -14 -8 5 -11 3 -8 -6 3 -8 -2 -20 -11 -27
-13 -11 -13 -12 -1 -7 8 4 4 -3 -10 -15 -14 -12 -19 -19 -12 -15 22 11 13 -2
-14 -20 -18 -12 -24 -13 -19 -4 3 8 1 7 -7 -2 -7 -9 -19 -14 -27 -11 -8 3 -11
0 -7 -6 9 -14 -26 -24 -57 -17 -14 4 -28 2 -31 -4 -9 -14 -63 -14 -71 0 -4 6
-19 7 -37 4 -23 -6 -29 -4 -23 6 6 9 3 11 -8 6 -15 -6 -17 2 -17 63 0 39 4 70
9 70 20 0 41 -13 35 -21 -3 -6 5 -7 22 -3 16 4 25 3 21 -3 -3 -5 9 -9 28 -9
19 0 31 4 28 10 -4 5 3 7 16 3 13 -3 21 -3 18 0 -8 7 25 43 35 37 4 -3 8 -3 8
0 0 3 -10 10 -21 17 -15 8 -19 8 -15 0 8 -13 10 -12 -66 -16 -38 -2 -56 1 -51
8 4 6 1 7 -7 2 -8 -5 -20 1 -32 16 -11 13 -17 18 -13 12 14 -28 -5 -11 -25 22
-13 22 -19 42 -15 55 4 11 2 20 -4 20 -13 0 -15 96 -2 104 5 3 7 16 3 28 -4
16 -2 19 8 13 9 -6 11 -4 6 4 -5 7 0 19 10 27 11 9 13 12 5 9 -9 -5 -7 1 4 19
10 15 24 25 31 22 7 -3 16 0 20 6 5 7 2 8 -6 3 -9 -6 -11 -4 -6 4 5 7 14 10
22 7 8 -3 14 -2 14 2 0 5 22 8 49 8 28 0 48 -3 45 -7z m-254 -189 l0 -185 -85
0 -85 0 0 185 0 185 85 0 85 0 0 -185z m-6220 176 c0 -2 -8 -10 -17 -17 -16
-13 -17 -12 -4 4 13 16 21 21 21 13z m2769 -123 l-1 -128 28 0 c22 0 28 4 26
18 -2 9 2 17 8 17 6 0 10 40 10 110 l0 110 80 0 80 0 0 -180 0 -180 -79 0
c-78 0 -80 0 -83 26 l-3 26 -25 -28 c-21 -25 -22 -26 -2 -10 12 11 22 15 22
10 0 -34 -135 -55 -177 -28 -44 28 -50 58 -45 217 l5 147 79 0 79 0 -2 -127z
m-172 -65 c-2 -18 -4 -4 -4 32 0 36 2 50 4 33 2 -18 2 -48 0 -65z m-3089 25
l3 -53 -100 0 -101 0 0 51 c0 35 -3 48 -12 43 -7 -4 -8 -3 -4 5 5 8 39 11 109
9 l102 -3 3 -52z m1951 -5 c-1 -68 -6 -61 -11 15 -2 26 0 47 4 47 5 0 7 -28 7
-62z m5701 58 c0 -3 -4 -8 -10 -11 -5 -3 -10 -1 -10 4 0 6 5 11 10 11 6 0 10
-2 10 -4z m-7863 -48 c-3 -8 -6 -5 -6 6 -1 11 2 17 5 13 3 -3 4 -12 1 -19z
m186 -75 c-7 -2 -19 -2 -25 0 -7 3 -2 5 12 5 14 0 19 -2 13 -5z m4367 -3 c0
-5 -2 -10 -4 -10 -3 0 -8 5 -11 10 -3 6 -1 10 4 10 6 0 11 -4 11 -10z m3825
-139 c-6 -5 -25 10 -25 20 0 5 6 4 14 -3 8 -7 12 -15 11 -17z m-11337 2 c-16
-2 -40 -2 -55 0 -16 2 -3 4 27 4 30 0 43 -2 28 -4z m4000 0 c-21 -2 -55 -2
-75 0 -21 2 -4 4 37 4 41 0 58 -2 38 -4z m2600 0 c-10 -2 -26 -2 -35 0 -10 3
-2 5 17 5 19 0 27 -2 18 -5z m505 0 c-13 -2 -33 -2 -45 0 -13 2 -3 4 22 4 25
0 35 -2 23 -4z m1000 0 c-7 -2 -19 -2 -25 0 -7 3 -2 5 12 5 14 0 19 -2 13 -5z"/>
<path d="M1749 1143 c-13 -16 -12 -17 4 -4 9 7 17 15 17 17 0 8 -8 3 -21 -13z"/>
<path d="M1709 1103 c-13 -16 -12 -17 4 -4 16 13 21 21 13 21 -2 0 -10 -8 -17
-17z"/>
<path d="M1312 935 c0 -77 2 -135 4 -128 3 7 11 10 17 8 7 -2 26 -6 42 -9 23
-5 26 -4 15 4 -12 9 -11 10 6 8 27 -4 55 19 47 39 -4 10 -2 14 4 10 7 -5 9 1
6 15 -3 14 -1 18 4 11 5 -6 8 11 8 42 0 29 -3 51 -7 48 -5 -2 -9 2 -10 9 0 7
-2 18 -2 23 -3 22 -17 34 -33 28 -10 -4 -14 -2 -10 4 5 7 -1 9 -15 5 -14 -3
-19 -2 -14 6 9 14 5 15 -28 3 -17 -7 -26 -7 -30 2 -2 7 -4 -51 -4 -128z m128
-89 c0 -2 -8 -10 -17 -17 -16 -13 -17 -12 -4 4 13 16 21 21 21 13z"/>
<path d="M1652 920 c0 -19 2 -27 5 -17 2 9 2 25 0 35 -3 9 -5 1 -5 -18z"/>
<path d="M1720 735 c13 -14 26 -25 28 -25 3 0 -5 11 -18 25 -13 14 -26 25 -28
25 -3 0 5 -11 18 -25z"/>
<path d="M2709 1143 l-24 -28 28 24 c25 23 32 31 24 31 -2 0 -14 -12 -28 -27z"/>
<path d="M2990 935 c13 -14 26 -25 28 -25 3 0 -5 11 -18 25 -13 14 -26 25 -28
25 -3 0 5 -11 18 -25z"/>
<path d="M2705 930 c10 -11 20 -20 23 -20 3 0 -3 9 -13 20 -10 11 -20 20 -23
20 -3 0 3 -9 13 -20z"/>
<path d="M4429 1123 l-24 -28 28 24 c15 14 27 26 27 28 0 8 -8 1 -31 -24z"/>
<path d="M4410 746 c0 -2 8 -10 18 -17 15 -13 16 -12 3 4 -13 16 -21 21 -21
13z"/>
<path d="M6819 1123 l-34 -38 38 34 c34 33 42 41 34 41 -2 0 -19 -17 -38 -37z"/>
<path d="M7028 1063 c6 -2 18 -2 25 0 6 3 1 5 -13 5 -14 0 -19 -2 -12 -5z"/>
<path d="M6810 735 c13 -14 26 -25 28 -25 3 0 -5 11 -18 25 -13 14 -26 25 -28
25 -3 0 5 -11 18 -25z"/>
<path d="M835 1084 c6 -2 9 -20 7 -39 -4 -30 -1 -36 24 -45 20 -8 30 -8 38 1
8 9 7 10 -4 4 -12 -7 -13 -6 -3 6 6 8 13 25 15 39 2 21 -1 24 -19 22 -13 -2
-23 2 -23 7 0 6 -10 11 -22 10 -13 0 -18 -3 -13 -5z"/>
<path d="M921 1034 c0 -11 3 -14 6 -6 3 7 2 16 -1 19 -3 4 -6 -2 -5 -13z"/>
<path d="M846 873 c-3 -4 -6 -21 -6 -40 0 -27 5 -35 26 -43 32 -13 54 -13 36
-1 -11 6 -10 10 5 16 10 5 20 8 23 7 3 0 5 10 5 23 0 13 -4 23 -10 22 -5 -1
-9 3 -8 8 1 11 -61 17 -71 8z"/>
<path d="M2351 991 c-6 -4 -9 -15 -5 -24 3 -10 1 -17 -5 -17 -6 0 -8 -12 -5
-32 4 -25 3 -29 -5 -18 -9 13 -11 13 -11 -2 0 -15 9 -18 45 -18 36 0 45 3 45
18 0 15 -2 15 -11 2 -8 -12 -9 -7 -6 18 2 17 -1 32 -6 32 -5 0 -7 9 -4 19 5
21 -13 34 -32 22z"/>
<path d="M10298 1063 c-16 -4 -18 -19 -18 -129 0 -116 1 -124 19 -124 11 0 27
-3 37 -7 13 -5 15 -3 9 7 -6 10 -4 12 7 7 19 -7 47 22 40 42 -3 8 0 11 7 7 7
-5 9 -1 4 10 -3 10 -2 15 3 12 5 -4 9 17 9 47 0 29 -4 51 -9 48 -5 -3 -7 0 -4
8 2 7 -3 20 -12 29 -12 12 -13 13 0 5 13 -9 13 -8 1 7 -7 10 -17 16 -21 13
-12 -8 -41 6 -34 16 5 9 -8 10 -38 2z m92 -217 c0 -2 -8 -10 -17 -17 -16 -13
-17 -12 -4 4 13 16 21 21 21 13z"/>
<path d="M6635 1000 c10 -11 20 -20 23 -20 3 0 -3 9 -13 20 -10 11 -20 20 -23
20 -3 0 3 -9 13 -20z"/>
<path d="M6197 933 c-12 -11 -8 -125 4 -118 6 4 9 0 7 -10 -2 -13 5 -18 25
-21 15 -1 25 1 22 7 -4 5 -1 9 4 9 7 0 11 27 11 70 l0 70 -33 0 c-19 0 -37 -3
-40 -7z m63 -7 c0 -2 -13 -6 -30 -8 -16 -3 -30 -1 -30 4 0 4 14 8 30 8 17 0
30 -2 30 -4z"/>
<path d="M6450 926 c-5 -5 -6 -15 -3 -22 3 -8 0 -14 -6 -14 -6 0 -11 -13 -11
-30 0 -16 5 -30 11 -30 6 0 9 -7 6 -15 -4 -8 -1 -18 6 -22 18 -12 56 -10 54 2
-1 5 3 9 10 8 8 -2 10 4 6 14 -4 9 -2 14 3 11 5 -4 9 13 9 37 0 24 -2 41 -4
39 -6 -6 -31 17 -27 25 6 9 -44 7 -54 -3z m25 -134 c-3 -3 -11 0 -18 7 -9 10
-8 11 6 5 10 -3 15 -9 12 -12z"/>
<path d="M6325 720 c10 -11 20 -20 23 -20 3 0 -3 9 -13 20 -10 11 -20 20 -23
20 -3 0 3 -9 13 -20z"/>
<path d="M6634 718 l-19 -23 23 19 c12 11 22 21 22 23 0 8 -8 2 -26 -19z"/>
<path d="M11975 831 c3 -5 1 -12 -4 -16 -5 -3 -9 -13 -8 -23 1 -12 9 -17 26
-16 19 1 25 6 23 19 -2 12 1 15 10 9 7 -4 4 2 -6 14 -18 21 -53 32 -41 13z"/>
<path d="M11830 706 c0 -2 8 -10 18 -17 15 -13 16 -12 3 4 -13 16 -21 21 -21
13z"/>
<path d="M5712 930 c3 -13 -15 -41 -21 -32 -3 6 -6 -11 -6 -38 0 -27 4 -45 9
-42 5 3 7 -2 3 -11 -4 -12 -2 -14 10 -10 11 5 14 3 8 -6 -4 -8 2 -7 17 3 14 9
28 13 32 9 4 -4 4 1 0 11 -4 11 -3 17 2 14 5 -4 9 13 9 37 0 24 -4 41 -9 37
-5 -3 -7 2 -3 11 4 12 2 14 -10 10 -9 -4 -14 -2 -10 3 3 5 -3 10 -13 10 -10 0
-18 -3 -18 -6z"/>
<path d="M5290 840 c0 -5 5 -10 11 -10 5 0 7 5 4 10 -3 6 -8 10 -11 10 -2 0
-4 -4 -4 -10z"/>
<path d="M5680 706 c0 -2 8 -10 18 -17 15 -13 16 -12 3 4 -13 16 -21 21 -21
13z"/>
<path d="M5304 548 l-19 -23 23 19 c12 11 22 21 22 23 0 8 -8 2 -26 -19z"/>
<path d="M8304 998 l-19 -23 23 19 c12 11 22 21 22 23 0 8 -8 2 -26 -19z"/>
<path d="M8433 946 c1 -6 -3 -10 -10 -9 -7 2 -10 -4 -7 -12 9 -22 51 -19 57 4
3 15 1 18 -11 14 -9 -4 -13 -2 -9 4 3 5 0 10 -8 10 -8 0 -13 -5 -12 -11z"/>
<path d="M9010 1036 c0 -2 8 -10 18 -17 15 -13 16 -12 3 4 -13 16 -21 21 -21
13z"/>
<path d="M9164 998 l-19 -23 23 19 c12 11 22 21 22 23 0 8 -8 2 -26 -19z"/>
<path d="M11023 929 c-6 -6 -9 -18 -6 -25 3 -8 1 -14 -4 -14 -5 0 -9 -15 -9
-34 0 -20 4 -32 10 -29 5 4 7 -1 3 -10 -4 -10 -2 -16 6 -14 7 1 11 -3 10 -8
-1 -6 7 -11 17 -11 10 0 16 5 13 10 -4 5 1 7 10 3 12 -4 14 -2 10 10 -4 9 -2
14 3 11 12 -8 9 101 -4 114 -7 7 -19 4 -38 -7 -24 -14 -25 -14 -10 -1 11 9 15
16 10 16 -6 0 -15 -5 -21 -11z"/>
<path d="M7210 706 c0 -2 8 -10 18 -17 15 -13 16 -12 3 4 -13 16 -21 21 -21
13z"/>
<path d="M5360 1863 c2 -69 116 -87 139 -22 8 22 7 29 -3 29 -8 0 -19 -7 -26
-15 -18 -21 -56 -15 -52 8 2 13 -4 17 -28 17 -22 0 -30 -5 -30 -17z"/>
<path d="M7495 1840 c-4 -6 -21 -10 -39 -8 -38 4 -45 -14 -9 -24 21 -6 32 -2
46 13 10 11 17 23 14 25 -3 3 -8 0 -12 -6z"/>
</g>
</svg>
