<?xml version="1.0" standalone="no"?>
<!DOCTYPE svg PUBLIC "-//W3C//DTD SVG 20010904//EN"
 "http://www.w3.org/TR/2001/REC-SVG-20010904/DTD/svg10.dtd">
<svg version="1.0" xmlns="http://www.w3.org/2000/svg"
 width="644.000000pt" height="430.000000pt" viewBox="0 0 644.000000 430.000000"
 preserveAspectRatio="xMidYMid meet">

<g transform="translate(0.000000,430.000000) scale(0.100000,-0.100000)"
fill="#000000" stroke="none">
<path d="M3415 4253 c31 -54 236 -438 328 -613 33 -63 74 -140 92 -170 18 -30
61 -111 97 -180 183 -348 241 -458 308 -580 32 -58 110 -206 175 -330 l117
-224 -78 -151 c-42 -82 -109 -208 -147 -280 -38 -71 -90 -168 -115 -215 -25
-47 -62 -116 -84 -153 -21 -38 -38 -71 -38 -73 0 -5 -246 -468 -264 -498 -8
-11 -38 -68 -68 -126 -91 -175 -299 -562 -325 -607 l-25 -43 69 0 68 0 52 103
c69 132 147 281 232 437 114 208 195 359 256 475 78 148 133 252 160 300 13
22 42 76 65 120 23 44 76 142 116 218 41 75 108 201 150 280 42 78 85 158 96
177 l19 36 -39 69 c-39 70 -97 178 -200 375 -31 58 -65 121 -77 140 -11 19
-41 73 -64 120 -24 47 -52 99 -61 115 -10 17 -76 140 -148 275 -230 434 -284
535 -292 545 -7 10 -67 122 -188 355 -36 69 -69 131 -75 138 -6 7 -34 12 -74
12 l-65 0 27 -47z"/>
<path d="M3600 4296 c0 -4 173 -327 252 -471 61 -111 195 -362 283 -530 32
-60 99 -189 150 -285 50 -96 111 -213 135 -260 24 -47 60 -114 80 -150 21 -36
75 -137 120 -225 46 -88 89 -169 97 -180 7 -11 13 -27 13 -36 0 -10 -31 -76
-70 -148 -38 -72 -70 -133 -70 -135 0 -3 -26 -51 -58 -108 -32 -57 -85 -155
-117 -218 -31 -63 -61 -119 -65 -125 -4 -5 -47 -86 -95 -180 -48 -93 -91 -174
-95 -180 -4 -5 -38 -68 -75 -140 -37 -71 -84 -161 -105 -200 -21 -38 -61 -115
-90 -170 -29 -55 -69 -129 -90 -165 -31 -55 -188 -349 -198 -372 -2 -5 19 -8
46 -8 l50 0 102 198 c57 108 119 226 140 262 20 36 63 115 95 175 32 61 86
160 121 221 64 114 169 306 314 579 20 39 71 131 112 205 41 74 101 185 133
245 32 61 76 143 98 184 l39 75 -52 100 c-29 56 -126 234 -215 396 -89 162
-169 309 -177 327 -9 17 -38 71 -66 120 -27 48 -74 133 -104 188 -30 55 -77
138 -105 185 -61 104 -64 110 -101 185 -32 65 -128 252 -254 493 l-79 152 -50
0 c-27 0 -49 -2 -49 -4z"/>
<path d="M3850 4290 c0 -5 14 -29 31 -52 16 -24 39 -58 51 -75 11 -18 26 -33
33 -33 19 0 259 -358 285 -425 4 -11 35 -78 69 -148 33 -70 61 -133 61 -140 0
-7 7 -25 15 -41 8 -16 20 -61 26 -100 6 -39 14 -75 18 -81 4 -5 14 -26 21 -45
13 -34 26 -66 68 -161 11 -26 23 -62 27 -80 l7 -34 -19 25 c-22 31 -78 122
-106 172 -38 70 -29 30 12 -51 76 -152 203 -396 231 -446 16 -27 71 -133 124
-234 l96 -185 -62 -120 c-33 -67 -100 -193 -148 -281 -131 -241 -345 -655
-402 -780 -21 -45 -23 -54 -8 -35 11 14 20 28 20 32 0 4 27 51 61 105 70 112
70 94 2 -72 -47 -116 -55 -141 -99 -300 -15 -55 -31 -107 -36 -115 -7 -15 -60
-130 -78 -173 -6 -12 -14 -29 -19 -37 -5 -8 -14 -26 -20 -40 -16 -36 -103
-194 -110 -200 -10 -8 -81 -116 -81 -123 0 -4 567 -7 1260 -7 l1260 0 0 2145
0 2145 -1295 0 c-825 0 -1295 -4 -1295 -10z m2058 -142 l3 -58 -60 0 -61 0 -2
-162 -3 -163 -70 0 -70 0 -3 162 -2 162 -58 3 -57 3 -3 44 c-6 75 -14 72 195
69 l188 -3 3 -57z m-43 -608 l0 -55 -67 -3 c-60 -3 -68 -5 -68 -22 0 -18 7
-20 65 -20 l66 0 -3 -57 -3 -58 -62 -3 c-54 -3 -63 -6 -63 -22 0 -17 9 -19 73
-22 l72 -3 3 -57 3 -58 -151 0 -150 0 0 213 c0 118 3 217 7 221 4 3 68 5 142
4 l136 -3 0 -55z m-56 -539 c51 -10 61 -22 61 -76 0 -60 -9 -69 -54 -50 -44
19 -91 16 -91 -4 0 -8 27 -28 59 -45 69 -37 96 -68 102 -122 7 -55 -21 -103
-77 -132 -38 -20 -55 -23 -131 -20 -108 5 -118 12 -118 89 0 50 3 59 18 59 10
0 22 -4 28 -9 14 -14 83 -31 100 -24 28 10 13 33 -36 54 -72 31 -110 78 -110
136 0 111 105 171 249 144z m-26 -610 l128 -1 -3 -57 -3 -58 -57 -3 -58 -3 0
-159 0 -160 -75 0 -75 0 0 160 0 159 -57 3 -58 3 -3 54 c-2 30 1 57 6 60 6 3
36 5 69 4 32 -1 116 -2 186 -2z m-68 -701 l70 -94 5 94 5 95 68 3 67 3 -2
-223 -3 -223 -57 -3 -58 -3 -77 106 -78 107 -3 -93 c-1 -51 -8 -99 -14 -106
-8 -10 -29 -13 -67 -11 l-56 3 -3 223 -2 223 67 -3 68 -3 70 -95z m139 -506
c12 -5 16 -20 16 -59 0 -61 -5 -65 -87 -65 -46 0 -54 -3 -51 -17 3 -15 16 -19
66 -21 l63 -3 -3 -57 -3 -57 -62 -3 c-55 -3 -63 -6 -63 -22 0 -18 7 -20 75
-20 l76 0 -3 -57 -3 -58 -147 -3 -148 -3 0 214 c0 152 3 216 12 225 13 13 232
18 262 6z m51 -664 l0 -55 -57 -3 -58 -3 0 -159 0 -160 -75 0 -75 0 0 160 0
159 -57 3 -58 3 -3 44 c-6 75 -14 72 195 69 l188 -3 0 -55z"/>
<path d="M2149 3766 c-2 -2 -45 -6 -94 -9 -506 -34 -1009 -326 -1296 -754
-368 -549 -383 -1228 -39 -1788 60 -97 118 -171 218 -276 148 -156 288 -258
492 -360 237 -118 437 -167 718 -176 252 -8 441 19 656 94 569 199 993 675
1116 1250 27 127 38 401 21 538 -95 747 -686 1340 -1456 1459 -94 14 -327 30
-336 22z m-199 -336 c0 -5 -2 -10 -4 -10 -3 0 -8 5 -11 10 -3 6 -1 10 4 10 6
0 11 -4 11 -10z m530 -4 c0 -11 -19 -15 -25 -6 -3 5 1 10 9 10 9 0 16 -2 16
-4z m-5 -36 c3 -5 1 -10 -4 -10 -6 0 -11 5 -11 10 0 6 2 10 4 10 3 0 8 -4 11
-10z m226 -11 c99 -32 275 -123 374 -194 244 -174 441 -438 529 -709 45 -137
60 -239 60 -401 -1 -115 -6 -174 -22 -250 -56 -258 -180 -488 -370 -686 -409
-426 -1015 -567 -1561 -362 -439 164 -784 540 -896 973 -36 141 -45 358 -21
505 70 422 353 808 756 1027 85 47 241 108 274 108 l26 0 0 -132 0 -133 -35
-28 c-20 -16 -47 -47 -61 -69 -55 -87 -54 -62 -55 -864 l-1 -743 30 -64 c36
-78 83 -126 157 -162 50 -25 73 -29 208 -37 232 -14 314 -8 393 33 70 35 112
80 144 151 16 38 21 91 34 393 9 193 23 496 32 675 20 399 17 474 -20 552 -15
31 -43 75 -63 97 l-35 42 1 125 c1 69 6 136 11 150 12 29 28 30 111 3z m-231
-294 c-3 -181 -12 -305 -22 -305 -5 0 -125 0 -269 0 l-260 0 3 230 3 230 274
-2 274 -3 -3 -150z m-649 -121 c-34 -52 -41 -52 -15 -1 21 40 35 59 42 53 2
-3 -10 -26 -27 -52z m778 -59 c0 -14 -4 -11 -11 10 -6 17 -17 39 -24 50 -8 11
-14 26 -14 35 1 8 12 -5 25 -30 13 -25 24 -54 24 -65z m-762 -117 c-2 -29 -3
-8 -3 47 0 55 1 79 3 53 2 -26 2 -71 0 -100z m-44 27 c3 -36 2 -52 -3 -40 -8
19 -14 113 -6 104 2 -2 6 -31 9 -64z m799 -54 c-18 -51 -72 -109 -126 -136
-48 -24 -56 -25 -256 -25 -252 0 -291 9 -362 80 -27 26 -48 53 -48 60 0 7 10
0 22 -16 31 -39 56 -60 103 -87 37 -21 54 -22 261 -25 220 -3 222 -3 271 22
58 29 106 79 124 130 7 20 15 34 17 31 2 -2 0 -18 -6 -34z m-545 -67 c-3 -3
-12 -4 -19 -1 -8 3 -5 6 6 6 11 1 17 -2 13 -5z m171 -1 c-10 -2 -26 -2 -35 0
-10 3 -2 5 17 5 19 0 27 -2 18 -5z m-422 -74 c30 -34 102 -71 163 -85 36 -9
125 -14 253 -14 223 0 269 10 345 75 23 19 44 35 48 35 3 0 4 -15 1 -32 -3
-18 -8 -96 -11 -173 -26 -641 -46 -998 -58 -1028 -20 -47 -98 -112 -153 -127
-73 -21 -419 -7 -476 18 -59 26 -126 101 -133 149 -8 51 -12 1203 -4 1203 3 0
14 -9 25 -21z"/>
<path d="M3282 2237 c-7 -8 -11 -75 -10 -180 0 -108 -4 -172 -11 -181 -6 -7
-14 -35 -17 -62 -4 -27 -10 -53 -14 -59 -4 -5 -29 -50 -55 -100 -44 -83 -116
-186 -158 -224 -9 -9 -33 -30 -52 -48 -19 -17 -54 -45 -79 -62 -24 -17 -46
-34 -48 -38 -1 -5 -19 -16 -38 -25 -19 -10 -42 -22 -50 -27 -8 -6 -27 -12 -42
-16 -36 -7 -94 -59 -102 -90 -6 -24 -8 -25 -29 -10 -27 19 -132 20 -167 2 -42
-22 -223 -28 -359 -12 -118 13 -284 60 -321 90 -33 27 -81 45 -120 45 -35 0
-40 3 -40 23 0 22 -55 86 -75 88 -6 0 -45 41 -88 90 -44 49 -85 89 -93 89 -8
0 -14 10 -14 27 0 33 -45 93 -71 93 -16 0 -19 7 -19 54 0 48 -4 59 -34 90 -29
31 -34 45 -38 99 -3 35 -12 79 -21 98 -8 19 -18 67 -21 108 -4 41 -11 80 -17
88 -15 17 -54 16 -164 -3 -117 -20 -129 -31 -120 -108 3 -33 13 -78 21 -100 7
-23 14 -55 14 -72 0 -46 29 -126 55 -150 17 -16 23 -35 27 -82 3 -46 10 -68
26 -85 12 -13 22 -31 22 -41 0 -23 49 -86 66 -86 9 0 14 -11 14 -29 0 -20 13
-45 38 -75 20 -25 48 -60 61 -77 13 -17 34 -35 47 -41 12 -6 25 -21 28 -34 3
-12 18 -32 34 -42 15 -11 46 -38 70 -61 50 -48 100 -56 125 -21 13 19 15 18
20 -27 4 -38 12 -54 40 -80 20 -18 52 -35 73 -39 21 -4 45 -16 54 -26 9 -12
33 -22 60 -25 25 -3 53 -12 62 -21 10 -8 40 -17 68 -20 28 -2 53 -9 56 -13 3
-5 34 -9 69 -9 35 0 67 -4 70 -10 3 -5 32 -10 64 -10 61 0 91 18 91 53 0 9 6
17 14 17 8 0 21 3 30 6 12 5 16 0 16 -18 0 -42 32 -61 89 -56 28 3 57 11 66
18 9 8 47 13 100 14 81 1 85 2 119 35 26 25 36 44 36 65 l0 29 23 -21 c19 -18
35 -22 86 -22 68 0 108 16 139 55 12 15 30 25 46 25 31 0 96 39 124 74 11 14
28 26 38 26 21 0 74 48 74 67 0 7 5 13 11 13 23 0 109 82 121 116 6 19 18 34
24 34 12 0 42 36 71 85 38 63 113 223 113 241 0 12 7 35 15 50 8 16 15 45 15
65 0 20 7 50 15 65 17 33 20 120 5 160 -8 19 -8 30 0 38 14 14 13 119 -2 134
-7 7 -30 12 -51 12 -27 0 -57 11 -97 35 -59 36 -109 45 -128 22z m109 -86 c38
-24 55 -29 83 -24 35 5 36 5 36 -26 0 -29 -2 -31 -36 -31 -26 0 -51 -10 -85
-35 -27 -19 -51 -35 -54 -35 -8 0 -6 60 3 60 4 0 18 9 31 19 l24 19 -31 16
c-23 12 -32 24 -32 41 0 31 3 31 61 -4z m-2357 -33 c23 -112 14 -144 -39 -135
-24 4 -35 1 -39 -9 -3 -8 -19 -14 -36 -14 -26 0 -33 6 -44 33 -8 17 -16 52
-17 77 l-4 45 70 11 c103 17 104 16 109 -8z m2356 -139 c0 -11 -7 -27 -15 -35
-19 -20 -19 -29 1 -49 11 -10 29 -15 53 -13 30 2 37 7 39 27 2 14 -3 30 -12
36 -13 10 -14 14 -2 31 14 18 15 18 35 0 28 -25 28 -84 0 -120 -16 -20 -29
-26 -59 -26 -77 0 -119 43 -104 106 13 54 64 89 64 43z m-2317 -157 c-23 -30
-77 -48 -117 -38 -28 7 -50 45 -62 105 -6 27 -4 28 78 53 l83 25 19 -59 c20
-58 20 -58 -1 -86z m2321 -13 c82 -24 90 -30 82 -56 -4 -13 -26 -26 -64 -38
l-57 -18 30 -13 c17 -7 38 -13 48 -14 14 0 17 -5 11 -22 -3 -13 -8 -25 -9 -26
-2 -2 -42 8 -89 22 -80 25 -85 28 -77 49 5 15 25 28 67 41 l58 20 -29 12 c-17
7 -38 13 -47 14 -19 0 -22 8 -12 34 8 20 3 20 88 -5z m-2277 -44 c31 -22 49
-85 33 -114 -9 -18 -14 -20 -26 -10 -8 6 -13 23 -12 38 3 35 -8 51 -35 51 -58
0 -88 -64 -40 -85 24 -10 37 -41 19 -48 -36 -14 -87 39 -88 92 -2 68 92 116
149 76z m2163 -124 c-1 -3 -7 -17 -15 -31 -8 -14 -14 -31 -15 -37 0 -25 25
-12 45 22 14 24 24 32 33 26 12 -7 11 -14 -3 -41 -16 -32 -14 -60 4 -60 6 0
20 18 31 40 22 43 21 43 44 34 14 -5 10 -17 -21 -74 l-38 -68 -77 41 c-43 23
-78 45 -78 48 0 3 14 31 30 62 21 38 36 54 45 50 8 -3 15 -8 15 -12z m-2040
-91 c0 -4 -25 -41 -57 -80 -52 -67 -57 -71 -70 -54 -7 10 -10 26 -7 36 7 24
-21 68 -44 68 -9 0 -23 9 -29 19 -11 18 -8 21 45 31 31 7 73 15 92 20 28 6 38
4 53 -12 9 -11 17 -24 17 -28z m1988 -52 c7 -7 12 -22 12 -35 0 -20 5 -23 39
-23 46 0 55 -8 35 -34 -11 -15 -21 -18 -58 -13 -56 8 -65 -4 -26 -35 31 -24
31 -24 11 -42 -20 -18 -22 -17 -90 35 l-70 53 37 46 c20 25 41 48 47 52 16 12
50 9 63 -4z m-1906 -55 c28 -26 38 -75 19 -87 -12 -8 -35 22 -36 47 0 13 -8
23 -19 25 -15 3 -17 0 -11 -14 4 -11 13 -36 19 -58 10 -35 9 -40 -13 -57 -29
-24 -56 -18 -93 22 -28 29 -35 62 -20 87 7 9 13 8 26 -7 10 -11 15 -24 12 -29
-10 -17 5 -42 25 -42 23 0 24 8 3 59 -30 75 29 111 88 54z m1776 -79 c12 -8
22 -26 22 -38 0 -19 8 -26 46 -36 l45 -13 -20 -21 c-19 -18 -25 -19 -63 -9
-56 15 -66 7 -34 -26 l26 -28 -20 -18 c-20 -18 -21 -18 -80 40 -33 33 -60 64
-59 70 1 11 95 95 107 95 4 0 18 -7 30 -16z m-1688 -45 c-6 -10 -15 -21 -21
-24 -7 -5 -4 -14 7 -26 22 -24 33 -24 59 1 21 20 22 20 39 1 16 -18 15 -21
-40 -80 -58 -63 -73 -71 -93 -47 -9 10 -8 16 4 26 34 28 36 47 8 65 -26 17
-27 17 -49 -8 -22 -25 -23 -26 -43 -9 -21 17 -20 18 40 85 58 64 62 67 80 51
14 -12 16 -21 9 -35z m1596 -134 c22 -42 10 -75 -38 -105 -51 -31 -76 -23
-127 43 -44 57 -45 59 -26 73 27 20 30 19 65 -36 33 -52 57 -62 80 -35 11 13
6 25 -24 71 -35 53 -36 57 -19 70 16 12 21 10 44 -17 15 -17 35 -45 45 -64z
m-1345 -20 c29 -16 54 -58 44 -75 -8 -12 -45 1 -45 16 0 7 -10 19 -22 25 -19
10 -25 8 -45 -15 -27 -32 -29 -58 -7 -77 12 -10 20 -10 34 -1 14 9 21 7 35 -8
17 -18 16 -20 -8 -31 -33 -15 -72 -5 -103 26 -28 28 -31 63 -9 105 26 51 71
63 126 35z m1138 -19 c10 -11 9 -16 -5 -24 -9 -5 -25 -7 -35 -5 -24 7 -49 -13
-49 -38 0 -10 10 -30 23 -45 20 -23 26 -25 45 -15 12 6 22 21 22 31 0 15 7 20
25 20 29 0 33 -24 10 -57 -18 -25 -76 -47 -103 -39 -31 10 -62 51 -69 89 -5
31 -1 40 25 67 34 33 90 41 111 16z m-999 -47 c50 -15 83 -66 60 -94 -7 -8
-19 -15 -27 -15 -10 0 -13 -6 -8 -17 15 -39 17 -73 6 -73 -29 0 -49 21 -55 60
-7 47 -23 52 -39 10 -12 -31 -22 -36 -46 -21 -11 7 -9 23 14 91 18 55 31 80
40 76 7 -2 32 -10 55 -17z m107 -35 c12 -3 27 -19 33 -35 15 -35 17 -35 42 -4
21 27 34 30 57 16 12 -8 7 -18 -27 -55 -29 -31 -42 -54 -42 -74 0 -36 -4 -40
-35 -34 -23 4 -24 8 -19 42 4 25 1 47 -10 68 -24 47 -36 82 -28 82 4 0 17 -3
29 -6z m647 -13 c23 -25 35 -81 25 -108 -11 -31 -52 -55 -94 -56 -80 -2 -122
107 -62 159 36 31 105 33 131 5z m-164 -14 c0 -18 -21 -37 -41 -37 -16 0 -17
-8 -12 -70 l6 -70 -26 0 c-24 0 -26 4 -32 58 -9 81 -11 84 -41 76 -23 -6 -25
-4 -22 17 3 21 9 25 63 30 101 10 105 9 105 -4z m-213 -3 c16 -4 24 -17 29
-40 8 -44 -7 -62 -57 -70 -35 -6 -39 -10 -39 -35 0 -24 -4 -29 -25 -29 -25 0
-25 1 -25 90 l0 90 48 0 c26 0 57 -3 69 -6z"/>
<path d="M972 2058 c5 -34 38 -37 38 -4 0 20 -5 26 -21 26 -15 0 -20 -5 -17
-22z"/>
<path d="M902 2043 c2 -17 10 -29 21 -31 13 -3 17 3 17 27 0 25 -4 31 -21 31
-16 0 -20 -5 -17 -27z"/>
<path d="M972 1887 c-20 -6 -32 -16 -30 -25 9 -47 91 -38 96 11 4 30 -8 33
-66 14z"/>
<path d="M1143 1540 c-15 -6 -21 -15 -17 -25 8 -20 17 -19 37 3 29 31 22 39
-20 22z"/>
<path d="M3157 1442 c-15 -16 -15 -19 3 -30 16 -10 21 -9 30 8 20 37 -5 53
-33 22z"/>
<path d="M3035 1316 c-17 -12 -17 -16 -6 -30 13 -15 15 -15 32 0 10 9 15 22
12 30 -7 18 -14 18 -38 0z"/>
<path d="M1766 1054 c-8 -20 -8 -19 22 -28 26 -9 44 20 21 35 -21 13 -36 11
-43 -7z"/>
<path d="M2457 1023 c-13 -12 -7 -70 7 -83 8 -6 25 -10 38 -8 46 6 31 98 -16
98 -12 0 -26 -3 -29 -7z"/>
<path d="M2116 984 c-9 -23 -8 -24 19 -24 18 0 25 5 25 20 0 24 -35 28 -44 4z"/>
<path d="M1978 3183 c-2 -5 -3 -46 -3 -93 l0 -85 33 -3 32 -3 0 95 0 96 -29 0
c-17 0 -31 -3 -33 -7z"/>
<path d="M2356 3153 c-3 -21 -6 -64 -6 -95 l0 -58 35 0 35 0 0 95 0 95 -29 0
c-25 0 -29 -4 -35 -37z"/>
<path d="M2148 2183 c-15 -16 -51 -59 -82 -97 -68 -87 -65 -106 18 -106 l54 0
-2 -175 c0 -96 -4 -175 -7 -175 -9 0 -79 70 -79 78 0 4 13 14 29 24 39 21 55
75 38 125 -23 69 -103 100 -171 68 -43 -21 -66 -59 -66 -111 0 -35 9 -47 120
-155 66 -65 120 -120 120 -124 0 -3 -6 -5 -14 -5 -8 0 -26 -14 -40 -31 -38
-45 -36 -97 6 -138 54 -53 127 -54 179 -1 23 22 29 38 29 71 0 36 -6 47 -40
80 -22 21 -40 44 -40 51 0 7 41 52 92 101 68 64 99 87 119 87 15 0 31 6 37 13
6 7 12 54 13 105 3 109 2 112 -84 112 -53 0 -58 2 -52 19 8 25 -119 211 -145
211 -3 0 -18 -12 -32 -27z m74 -303 c-5 -113 3 -134 47 -124 25 6 24 5 -14
-35 -21 -22 -42 -41 -45 -41 -5 0 -7 146 -2 248 1 28 6 52 10 52 4 0 6 -45 4
-100z"/>
<path d="M4520 2486 c0 -2 8 -10 18 -17 15 -13 16 -12 3 4 -13 16 -21 21 -21
13z"/>
<path d="M4385 2359 c-4 -6 -5 -12 -2 -15 2 -3 7 2 10 11 7 17 1 20 -8 4z"/>
<path d="M4410 2304 c0 -8 5 -12 10 -9 6 4 8 11 5 16 -9 14 -15 11 -15 -7z"/>
<path d="M4616 2305 c4 -8 10 -15 15 -15 4 0 6 7 3 15 -4 8 -10 15 -15 15 -4
0 -6 -7 -3 -15z"/>
<path d="M4636 2265 c4 -8 10 -15 15 -15 4 0 6 7 3 15 -4 8 -10 15 -15 15 -4
0 -6 -7 -3 -15z"/>
<path d="M4455 2220 c3 -5 8 -10 11 -10 2 0 4 5 4 10 0 6 -5 10 -11 10 -5 0
-7 -4 -4 -10z"/>
<path d="M4685 2180 c9 -31 25 -50 25 -29 0 7 -8 23 -16 34 -16 19 -16 19 -9
-5z"/>
<path d="M4662 2090 c0 -14 2 -19 5 -12 2 6 2 18 0 25 -3 6 -5 1 -5 -13z"/>
<path d="M4635 2040 c-3 -5 -1 -10 4 -10 6 0 11 5 11 10 0 6 -2 10 -4 10 -3 0
-8 -4 -11 -10z"/>
<path d="M4615 2011 c-3 -5 -1 -12 5 -16 5 -3 10 1 10 9 0 18 -6 21 -15 7z"/>
<path d="M4595 1970 c3 -5 8 -10 11 -10 2 0 4 5 4 10 0 6 -5 10 -11 10 -5 0
-7 -4 -4 -10z"/>
<path d="M4380 1960 c0 -5 5 -10 11 -10 5 0 7 5 4 10 -3 6 -8 10 -11 10 -2 0
-4 -4 -4 -10z"/>
<path d="M4555 1879 c-4 -6 -5 -12 -2 -15 2 -3 7 2 10 11 7 17 1 20 -8 4z"/>
</g>
</svg>
